<svg xmlns="http://www.w3.org/2000/svg" width="147.982" height="116.644" viewBox="0 0 147.982 116.644"><defs><style>.a{fill:#b28b67;}.b{fill:#db2721;}.c{fill:#ff4133;}</style></defs><path class="a" d="M147.183,68.168c.728-.449,1.524-2.139-.4-3.456-4.8-3.293-11.709-9.05-12.646-10.945C132.225,49.891,122.679,0,122.679,0L108.4.053S124.713,52.9,125.719,55.4c1.509,3.739-1.684,9.434-3.049,12.494,2.152.963,3.152-.267,4.246-1.5,1.167-1.311,2.442-2.621,5.336-1.274,3.7,1.723,6.766,4.459,10.416,4.459a8.469,8.469,0,0,0,4.514-1.41Zm-127.9-29.92L38.49,26.923,32.355,16.308,13.884,34.328A56,56,0,0,0,.673,41.922c-.772.93-1.612,2.715,2.021,1.916s7.488-1.475,8.171-.293-1.329,2.991-.065,4.537a.477.477,0,0,0,.387.185Q12.922,48.267,19.283,38.248Z" transform="translate(0 47.065)"/><path class="b" d="M0,72.174l5.533,1.455c11.585-30.5,58.912-47.846,62.727-59.294,1.4-4.2-1.5-6.636.211-7.8L61.636.549C60.274,1.883,57.866-.986,52.2.378S3.24,35.139,0,72.174Z" transform="matrix(-0.996, 0.087, -0.087, -0.996, 85.462, 78.461)"/><path class="c" d="M82.476,97.62c-.652-3.6,3.871-5.347,2.658-13.384C78.285,38.812,51.985,14.41,41.374,6.246l-.267-3.82A2.608,2.608,0,0,0,38.323.007L20.76,1.235a2.608,2.608,0,0,0-2.42,2.784l.469,6.711C19.462,52.3-4.569,62.907.783,79.582,5.2,93.353,47.509,108.155,54.829,94.657c2.934-5.412,4.281-11.943,4.455-19.046,1.845,5.363,3.391,10.184,4.444,14.044,1.877,6.873,9.158,7.965,9.158,10.613Z" transform="translate(50.876 0)"/></svg>