<svg xmlns="http://www.w3.org/2000/svg" width="153.759" height="108.239" viewBox="0 0 153.759 108.239"><defs><style>.a{fill:#c5cfd6;}.b{fill:rgba(0,0,0,0.1);}.c{fill:#b28b67;}.d{fill:#1f28cf;}.e{fill:#e4e4e4;}.f{fill:#2b44ff;}</style></defs><g transform="translate(78.774 27.386)"><path class="a" d="M56.974,0H6.6L0,80.854H74.985Z"/><path class="b" d="M24.763,0H9.27L0,80.854H42.774Z" transform="translate(32.211)"/></g><path class="c" d="M21.383,92.3c.652-8.248,1.865-36.8.652-50.022-.512-5.58-1.065-10.889-1.607-15.6,11.644,20.941,30.7,51.577,30.7,51.577l7.509-3.432S49.789,45.675,44.128,33.67C37.667,19.966,31.609,8.231,29.058,4.1,25.048-2.4,18.065-.136,14.376,3.8,9,.575-.006,4.718,0,9.33c.019,13.8,12.613,78.841,13.27,82.952a4.465,4.465,0,0,0,4.481,3.5A3.484,3.484,0,0,0,21.383,92.3Z" transform="translate(13.568 9.734)"/><path class="d" d="M0,0,3.337,66.189c2.4,11.445,22.761,6.133,22.752,0C26.071,52.265,17.706,4.162,17.7.014Z" transform="translate(71.666 73.763) rotate(160)"/><g transform="translate(78.805 88.398) rotate(150)"><path class="e" d="M2.917,10.411a1.3,1.3,0,0,1-1.673-.879L0,5.147A41.888,41.888,0,0,1,.587,0H37.362S38.8,4.739,35.707,5.117s-5.132.683-5.132.683L13.484,13.42a.652.652,0,0,1-.869-.347l-1.1-2.666A14.778,14.778,0,0,0,6.87,9.073Z" transform="translate(0 0)"/></g><g transform="translate(0 94.763)"><path class="e" d="M34.777,3.4a1.3,1.3,0,0,1,1.673.879l1.244,4.385a41.888,41.888,0,0,1-.587,5.147H.333S-1.1,9.069,1.987,8.691s5.132-.683,5.132-.683L24.21.389a.652.652,0,0,1,.869.347l1.1,2.666a14.778,14.778,0,0,0,4.647,1.334Z" transform="translate(0 -0.332)"/></g><path class="f" d="M0,23.756C0,41.079,8.227,81.486,8.232,85.3l17.7.014s-3.886-54.081-2.756-54.668S69.5,35.159,83.059,35.159c19.548,0,27.634-12.324,28.29-35.159H72.627C64.743.844,23.618,9.138,8.345,11.99,1.806,13.211,0,18.984,0,23.756Z" transform="translate(11.763)"/></svg>