<svg xmlns="http://www.w3.org/2000/svg" width="1247.243" height="482.405" viewBox="0 0 1247.243 482.405"><defs><style>.a{fill:#b28b67;}.b{fill:#191847;}.c{fill:#c5cfd6;}.d{fill:rgba(0,0,0,0.1);}.e{fill:#1f28cf;}.f{fill:#e4e4e4;}.g{fill:#2b44ff;}.h{fill:#c1dee2;}.i{fill:rgba(0,0,0,0.2);}.j{fill:#997659;}.k{fill:#69a1ac;}.l{fill:#89c5cc;}.m{fill:#db2721;}.n{fill:#ff4133;}</style></defs><g transform="translate(0 127.713)"><g transform="translate(46.614)"><g transform="translate(17.24 16.205)"><path class="a" d="M0,74.041l8.374-39.06C3.7,29.5.543,22.772,1.071,15.24,2.593-6.466,32.787-1.691,38.66,9.264s5.176,38.744-2.415,40.7c-3.027.781-9.476-1.132-16.04-5.091l4.12,29.166Z" transform="translate(0 0)"/></g><path class="b" d="M-58.3,24.243A7.609,7.609,0,0,1-59.889,21.3,29.827,29.827,0,0,1-60.9,17.949c-.511-2.281-.516-4.9,1.111-6.676a7.647,7.647,0,0,1,5.068-2.2,9.306,9.306,0,0,1,3.593.456c1.144.376,2.131,1.127,3.241,1.592a14.518,14.518,0,0,1,1.71-7.13A7.1,7.1,0,0,1-40.893.541a10.481,10.481,0,0,1,6.443,1.3,16.842,16.842,0,0,1,1.472.877,4.126,4.126,0,0,0,1.278.7c.52.122.778-.178,1.116-.558a8.484,8.484,0,0,1,1.316-1.185A7.746,7.746,0,0,1-22.016.429a6.739,6.739,0,0,1,2.957,2.139c.675.886,1.156,2.29,2.087,2.907.4.262.674-.085,1.034-.342.54-.385,1.056-.811,1.6-1.185a7.337,7.337,0,0,1,2.49-1.127c1.3-.3,3.106-.231,3.478,1.478a7.058,7.058,0,0,1-.013,1.975c-.062.888-.127,1.776-.2,2.663a19.237,19.237,0,0,1-.259,1.985,2.906,2.906,0,0,0-.129,1.362c.189.441,1.06.19,1.432.206a5.655,5.655,0,0,1,2.153.474,2.317,2.317,0,0,1,1.3,1.206,2.168,2.168,0,0,1,.038,1.13,3.385,3.385,0,0,0,.069,1.164c.987-.486,4.408-1.567,4.839.2a2.771,2.771,0,0,1-.432,1.753,15.193,15.193,0,0,1-1.595,2.429,21.709,21.709,0,0,1-4.247,4.123A2.786,2.786,0,0,1-3.76,27.1a2.786,2.786,0,0,1-.928,2.533,3.447,3.447,0,0,1-2.533.735,5.6,5.6,0,0,0-1.047-.083,2.5,2.5,0,0,1-.475.16,14.107,14.107,0,0,1-3.884-.493,12.8,12.8,0,0,1-5.924-3.1,1.826,1.826,0,0,0-1.37-.63c-.509,0-1.009.145-1.518.158a10.932,10.932,0,0,1-3.812-1.063A14.4,14.4,0,0,1-26.5,30.4c-.564,1.24-1.74,1.421-2.9,1.529-3.7.348-7.409-.04-11.112-.035,3.584.811,7.288,1.145,10.841,2.1,1.606.431.38,1.514-.307,2.265a13.056,13.056,0,0,0-2.554,4.382c-1.753-2.287-4.853-3.794-7.6-3.092-3.034.776-5.17,4.882-3.23,7.833,1.126,1.713,3.16,2.375,4.853,3.111-1.32,1.374-1.64,3.4-2.434,5.111a3.657,3.657,0,0,1-1.819,2.089,2.126,2.126,0,0,0-.96.383c-.317.328-.392.694-.8.975a4.492,4.492,0,0,1-5.569-.429,3.639,3.639,0,0,1,.123-4.769c-1.721-.718-4.856-1.641-4.172-4.324-3.729-.248-12.782-6.3-7.778-10.722-2.747-1.553-5.27-5.35-3.506-8.7,1.358-2.577,4.518-3.729,7.11-3.865" transform="translate(66.01 -0.024)"/></g><g transform="translate(0 175.445)"><g transform="translate(0 42.599)"><path class="c" d="M28,0h78.3l10.26,125.769H0Z"/><path class="d" d="M28,0H52.079L66.493,125.769H0Z"/></g><path class="a" d="M57.906,143.569c-1.014-12.831-2.9-57.25-1.013-77.81.8-8.679,1.655-16.935,2.5-24.268-18.1,32.574-47.718,80.227-47.718,80.227L0,116.38s13.75-45.331,22.549-64c10.044-21.317,19.462-39.572,23.425-46C52.209-3.741,63.062-.212,68.8,5.91c8.349-5.016,22.355,1.429,22.345,8.6-.032,21.47-19.608,122.642-20.63,129.038C69.974,146.932,66.652,149,63.55,149,60.791,149,58.206,147.365,57.906,143.569Z" transform="translate(126.772 15.142)"/><path class="e" d="M0,113.423,5.164,10.474c3.735-17.8,35.381-9.532,35.37.008-.025,21.658-13.011,96.473-13.018,102.926Z" transform="translate(166.4 8.157) rotate(20)"/><g transform="translate(127.964 117.42) rotate(30)"><path class="f" d="M4.036,4.242A1.8,1.8,0,0,0,1.722,5.458L0,11.525a57.964,57.964,0,0,0,.813,7.123H51.7s1.984-6.558-2.29-7.081-7.1-.944-7.1-.944L18.659.078a.9.9,0,0,0-1.2.48l-1.52,3.688s-3.956,1.846-6.43,1.846Z" transform="translate(0 0)"/></g><g transform="translate(180.413 147.406)"><path class="f" d="M4.534,5.1a2.027,2.027,0,0,0-2.6,1.368L0,13.288A65.2,65.2,0,0,0,.913,21.3H58.08s2.228-7.372-2.573-7.96-7.977-1.061-7.977-1.061L20.96.42a1.013,1.013,0,0,0-1.35.54L17.9,5.106s-4.442,2.075-7.22,2.075Z" transform="translate(0 -0.332)"/></g><path class="g" d="M173.086,36.953c0,26.946-12.788,89.8-12.8,95.734l-27.514.021s6.041-84.127,4.284-85.033-72.014,7.02-93.085,7.02C13.59,54.694,1.02,35.52,0,0H60.191c12.256,1.312,76.182,14.215,99.922,18.651C170.278,20.55,173.086,29.53,173.086,36.953Z" transform="translate(47.637)"/></g><g transform="translate(38.304 67.932)"><path class="h" d="M0,132.981c0-14.406,11.831-28.887,12.209-46.4.359-16.681,3.474-67.2,16.477-84.261q.355-1.156.721-2.32l.9.424c.141-.145.282-.286.425-.424L59.1,4.39c0,15.966,12.694,30.9,20.724,43.755,12.483,19.979,34.7,42.125,20.454,71.806-8.19,17.069-27.562,21.972-47.121,21.971C26.748,141.922,0,132.981,0,132.981Z"/><path class="a" d="M26.843,73.809c-3.412,0-8.09-5.6-10.886-8.946q-.674-.807-1.17-1.383C13.8,62.347,8.825,58.566,0,52.24c1.884-9.73,3.127-16.332,3.693-19.624,7.516,8.5,13.533,14.994,17.884,19.3s7.141,6.533,8.31,6.632q.3.025.6.025a10.216,10.216,0,0,0,4.659-1.333c.334-.173.643-.343.942-.507a5.307,5.307,0,0,1,1.961-.826.555.555,0,0,1,.452.2,9.616,9.616,0,0,1,.021,4.755,19.591,19.591,0,0,1-2.232,5.789c-1.3,2.25-4.183,6.165-8.886,7.107a2.853,2.853,0,0,1-.561.051Zm8.393-50.225c-1.919,0-6.77-1.529-11.046-3.482-2.482-1.134-8.256-4.035-8.256-6.488,0-2.146,2.989-3.6,5.88-5.008,2.444-1.19,4.752-2.313,4.752-3.715a5.594,5.594,0,0,0-1.427-3.209c-.431-.576-.771-1.03-.628-1.316C24.638.113,25.13,0,26.107,0c4.076,0,6.144,1.793,8.339,4.891.941,1.329,1.923,4.8,2.442,8.634.565,4.177.432,7.581-.356,9.107a1.472,1.472,0,0,1-1.3.952Z" transform="translate(63.927 60.128)"/><path class="i" d="M38.876,110.838C18.031,96.259,5.863,79.5,1.675,59.59A80.154,80.154,0,0,1,.036,45.415a102.126,102.126,0,0,1,.7-14.673A168.8,168.8,0,0,1,7.666,0,158.621,158.621,0,0,0,3.139,29.967a106.24,106.24,0,0,0,.285,14.165A89.039,89.039,0,0,0,5.715,57.8c4.718,18.792,15.8,35.307,33.872,50.487-.423,1.519-.685,2.456-.709,2.542v0Z" transform="translate(16.43 18.989)"/></g></g><g transform="translate(985.34)"><g transform="translate(94.42)"><g transform="translate(0 38.582)"><path class="a" d="M0,0,8.387,39.09C3.71,44.58.544,51.309,1.073,58.848,2.6,80.57,32.836,75.791,38.717,64.828S43.9,26.054,36.3,24.094c-3.032-.781-9.49,1.133-16.063,5.095L24.362,0Z" transform="translate(42.631 74.099) rotate(180)"/></g><path class="b" d="M14.53,35.208c3.211-.527,11.856-.889,13.45-.888,1.019,0,2.123.233,2.726-.7.494-.766.313-2.062.461-2.951.171-1.033.414-2.052.661-3.069a31.2,31.2,0,0,1,3.24-8.231A25.3,25.3,0,0,1,47.06,8.509,38.508,38.508,0,0,1,65.267,6c6.534.53,12.449,2.687,18.619,4.717a39.021,39.021,0,0,0,18.186,1.751c6.2-.952,10.876-4.309,16.1-7.5,5.35-3.263,11.463-5.4,17.787-4.906,5.9.458,11.344,2.9,16.226,6.152,4.567,3.047,8.336,6.712,10.463,11.871,2.289,5.549,2.287,11.64-1.477,16.545-5.456,7.109-15.584,8.947-24.01,8.764A45.873,45.873,0,0,1,122.9,40.788c-6.137-2.158-11.44-5.817-17.181-8.785a44.707,44.707,0,0,0-8.4-3.361c-2.833-.8-5.623-1.167-8.187.544-2.713,1.81-5.144,3.589-8.248,4.722a26.6,26.6,0,0,1-9.3,1.671c-6.172-.048-12.257-1.971-18.251-3.259-4.889-1.05-10.119-2.1-15.1-1.087-2.08.421-5.117,1.291-5.868,3.452C45,36.976,49.967,52.611,46.4,64.088c-1.924,6.195-13.486,13.436-17.982,10.18-2.848-2.063-1.119-4.772,0-6.56,2.143-3.424,2.876-7.823-1.089-10.207-3.42-2.056-7.017,2.827-7.085,2.821-.94-.074-9.063-4.668-14.66-11.372C.066,49.278-.772,45.637.547,42.66S10.094,35.936,14.53,35.208Z" transform="translate(3.269 0.009)"/></g><g transform="translate(48.959 239.696)"><path class="j" d="M71.1,0,32.963,124.935,14.487,231.184H0L19.523,0Z" transform="translate(40.387)"/><path class="a" d="M57.464,0c-2.591,68.6.458,103.979,1.038,110.211s8.519,46.643,27.315,123.065L70.38,227.964c-29.7-70.09-39.827-106.518-43.234-115.721S14.69,65.625,0,0Z" transform="translate(67.672)"/><g transform="translate(95.274 221.724)"><path class="f" d="M54.062,5.106a2.026,2.026,0,0,1,2.6,1.369L58.6,13.3a65.36,65.36,0,0,1-.913,8.017H.516s-2.228-7.381,2.573-7.97,7.976-1.063,7.976-1.063L37.636.42a1.013,1.013,0,0,1,1.35.54l1.708,4.151s4.444,2.078,7.223,2.078Z" transform="translate(0 -0.332)"/></g><g transform="translate(0 221.724)"><path class="f" d="M54.062,5.106a2.026,2.026,0,0,1,2.6,1.369L58.6,13.3a65.36,65.36,0,0,1-.913,8.017H.516s-2.228-7.381,2.573-7.97,7.976-1.063,7.976-1.063L37.636.42a1.013,1.013,0,0,1,1.35.54l1.708,4.151s4.444,2.078,7.223,2.078Z" transform="translate(0 -0.332)"/></g><path class="k" d="M65.75,0,49.533,63.653H0L7.386,0Z" transform="translate(50.809)"/><path class="l" d="M61.778,0c8,24.039,3.041,63.653,3.041,63.653H14.273L.373,0Z" transform="translate(63.903)"/></g><g transform="translate(0 115.406) rotate(-8)"><path class="a" d="M1.245,2.191c-1.133.7-2.373,3.323.624,5.375,7.469,5.112,18.232,14.059,19.686,17,2.975,6.024,17.836,83.552,17.836,83.552l22.227-.083s-25.393-82.125-26.959-86c-2.349-5.811,2.622-14.66,4.747-19.416-3.35-1.5-4.907.414-6.61,2.325C30.98,6.98,29,9.017,24.489,6.924,18.723,4.25,13.956,0,8.273,0A13.2,13.2,0,0,0,1.245,2.191Zm199.107,46.5-29.9,17.6L180,82.779l28.754-28a87.216,87.216,0,0,0,20.566-11.8c1.2-1.446,2.51-4.219-3.144-2.978s-11.657,2.292-12.72.456,2.069-4.648.1-7.05a.744.744,0,0,0-.6-.287q-2.708,0-12.609,15.566Z" transform="translate(230.367 181.258) rotate(180)"/><path class="m" d="M0,112.145l8.613,2.262c18.027-47.4,91.7-74.338,97.632-92.127,2.176-6.524-2.333-10.312.326-12.125L95.932.855c-2.121,2.073-5.869-2.386-14.7-.269S5.035,54.593,0,112.145Z" transform="matrix(-0.996, 0.087, -0.087, -0.996, 133.019, 121.914)"/><path class="n" d="M68.872,152.1l-.419-5.987C51.934,133.418,10.991,95.5.323,24.912-1.564,12.425,5.475,9.7,4.461,4.114L19.393,0c0,4.114,11.333,5.812,14.256,16.492,1.642,6,4.046,13.489,6.918,21.823.271-11.037,2.368-21.188,6.936-29.6,11.4-20.975,77.255,2.028,84.136,23.426,8.333,25.914-29.077,42.391-28.063,106.992l.733,10.479a4,4,0,0,1-3.712,4.27L73.14,155.8c-.1.007-.19.01-.284.01A4,4,0,0,1,68.872,152.1Z" transform="translate(212.057 155.812) rotate(180)"/></g></g></svg>