<svg xmlns="http://www.w3.org/2000/svg" width="263.108" height="406.022" viewBox="0 0 263.108 406.022"><defs><style>.a{fill:#b28b67;}.b{fill:#191847;}.c{fill:#997659;}.d{fill:#e4e4e4;}.e{fill:#69a1ac;}.f{fill:#89c5cc;}.g{fill:#e87613;}.h{fill:#dde3e9;}.i{fill:#ff9b21;}.j{fill:rgba(0,0,0,0.1);}</style></defs><g transform="translate(0 0)"><g transform="matrix(0.966, -0.259, 0.259, 0.966, 84.727, 11.328)"><g transform="translate(0.112 1.989)"><path class="a" d="M0,73.589,8.342,34.77C3.69,29.315.54,22.635,1.067,15.149,2.583-6.427,32.662-1.681,38.512,9.207s5.156,38.507-2.405,40.454c-3.016.776-9.44-1.125-15.979-5.06l4.1,28.987Z" transform="translate(0 0)"/></g><path class="b" d="M20.4,45.408C18.775,40.5,18.153,26.368,18,22.193a6.13,6.13,0,0,0-.727-.043,6.047,6.047,0,0,0-4.233,10.376c-1.4,1.975-2.972,4.039-4.772,6.169C1.508,34.643-3.51,22.784,3.1,11.392,4.929,5.81,9.064,2.829,13.952,1.446A17.6,17.6,0,0,1,25.487.6c6.8.582,12.87,2.653,14.589,3.882,0,6.426-1.248,8.333-11.9,8.165-2.618,1.38-4.63,3.757-6.724,6.873.015.208,1.423,19.351,7.362,19.351,5.969,0,11.037-3.784,13.655-3.784,1.909,0,1.483,2.386.217,4.155-1.044,1.459-6.129,2.866-6.129,5.129,0,1.277,1.281,1.276,2.4,1.273.859,0,1.621,0,1.621.582,0,2.22.707,6.392-3.152,6.392C33.516,52.615,22.319,51.194,20.4,45.408Z" transform="translate(0 0)"/></g><g transform="translate(0 165.092)"><path class="c" d="M0,0,49.557,125.23,82.794,231.1H95.919L45.106,0Z" transform="translate(115.589)"/><path class="a" d="M94.345,0c-.528,44.007-8.224,103.255-9.451,106S0,175.764,0,175.764l9.04,9.66s98.714-57.467,103.282-65.13S131.762,42.1,143.7,0Z" transform="translate(11.265)"/><g transform="translate(14.758 166.312) rotate(50)"><path class="d" d="M4.171,4.382A1.864,1.864,0,0,0,1.776,5.639L0,11.908a59.886,59.886,0,0,0,.84,7.358H53.419s2.049-6.776-2.366-7.316-7.337-.977-7.337-.977L19.278.081a.932.932,0,0,0-1.241.5l-1.571,3.81S12.378,6.294,9.823,6.294Z" transform="translate(0 0)"/></g><g transform="translate(191.315 220.096)"><path class="d" d="M4.517,5.069A2.02,2.02,0,0,0,1.927,6.43L0,13.209a64.661,64.661,0,0,0,.91,7.958H57.857s2.22-7.327-2.563-7.911S47.349,12.2,47.349,12.2L20.88.42a1.01,1.01,0,0,0-1.345.537l-1.7,4.123s-4.427,2.063-7.2,2.063Z" transform="translate(0 -0.332)"/></g><path class="e" d="M39.737,220.2l62.4-6.762L55.892,0H0Z" transform="translate(109.172)"/><path class="f" d="M0,160.184l40.932,48.373s64.67-70.519,75.405-92.027S135.639,0,135.639,0H72.717s-4.679,83.6-6.308,87.485S0,160.184,0,160.184Z" transform="translate(24.173)"/></g><g transform="matrix(0.985, -0.174, 0.174, 0.985, 20.446, 74.649)"><path class="a" d="M1.239,87.484c-1.127-.693-2.361-3.306.62-5.347C9.288,77.051,19.994,68.15,21.441,65.22,24.4,59.226,34.476.814,34.476.814L55.575.9s-19.542,62.986-21.1,66.838C32.14,73.518,37.084,82.322,39.2,87.054c-3.332,1.489-4.881-.412-6.575-2.313-1.806-2.026-3.781-4.052-8.263-1.969-5.735,2.664-10.477,6.893-16.13,6.892a13.13,13.13,0,0,1-6.991-2.18Zm181.67-56.706L151.015,17.57,158.134,0l32.208,23.612A86.789,86.789,0,0,1,212.236,32.4c1.385,1.259,3.058,3.81-2.684,3.369s-11.8-.647-12.593,1.309,2.682,4.293,1.078,6.932a.761.761,0,0,1-.7.376q-2.83,0-14.432-13.606Z" transform="translate(0 96.498)"/><path class="g" d="M0,2.25,8.567,0C43.273,25.01,61.206,77.321,103.24,102.185L94.749,114.8C25.385,112.321,2.671,48.587,0,2.25Z" transform="matrix(0.996, 0.087, -0.087, 0.996, 94.634, 6.675)"/><path class="h" d="M0,114.921H77.252c3.53,0,2.865-5.089,2.355-7.657C73.717,77.626,50.727,45.678,50.727,3.489L28.444,0C10.014,29.6,3.64,66.034,0,114.921Z" transform="translate(56.377 3.542)"/><path class="i" d="M.1,160.8C-1.68,103.264,20.141,58.982,38.4,32.286a11.718,11.718,0,0,1-10.028-6.153c-8.144-14.673-5.2-22.751,3.5-25.406S48.34,3.542,62.208,3.542a10.826,10.826,0,0,1,1.654.118l7.395.421s30.021,101.584,16.56,135.549H26.754A193.316,193.316,0,0,1,16.669,160.8Z" transform="translate(20.936 0)"/><path class="j" d="M22.821,36.841H0C4.186,26.8,8.8,14.411,13.722,0c2.049,17.76,5.11,30.153,9.1,36.84Z" transform="translate(47.691 102.791)"/></g></g></svg>