<svg xmlns="http://www.w3.org/2000/svg" width="231.008" height="372.599" viewBox="0 0 231.008 372.599"><defs><style>.a{fill:#b28b67;}.b{fill:#191847;}.c{fill:#1f28cf;}.d{fill:#2b44ff;}.e{fill:#997659;}.f{fill:#afb9c5;}.g{fill:#c5cfd6;}.h{fill:rgba(0,0,0,0.1);}</style></defs><g transform="translate(0)"><g transform="translate(84.441 0)"><g transform="translate(6.386 15.522)"><path class="a" d="M0,0,7.537,35.14C3.335,40.077.488,46.126.964,52.9,2.334,72.429,29.512,68.132,34.8,58.277s4.659-34.857-2.173-36.619c-2.727-.7-8.529,1.018-14.437,4.58L21.9,0Z" transform="translate(38.317 66.611) rotate(180)"/></g><path class="b" d="M.2,10.181A4.737,4.737,0,0,1,3.522,6.819,4.368,4.368,0,0,1,4.742,6.7c.147.006.19.048.257-.055a1.35,1.35,0,0,0,.075-.355,6.646,6.646,0,0,1,.248-.825,6.712,6.712,0,0,1,1.616-2.4A8.146,8.146,0,0,1,11.831.745a7.132,7.132,0,0,1,2.942.4,11.646,11.646,0,0,1,1.428.611c.14.07.591.412.731.39s.465-.408.591-.507A8.645,8.645,0,0,1,22.924,0c2.182.016,4.283.127,6.1,1.459a12.207,12.207,0,0,1,1.1.912c.184.171.362.348.532.533q.153.167.3.343c.163.2.137.264.365.127a4.536,4.536,0,0,1,2.913-.656,6.518,6.518,0,0,1,1.758.5c.19.082.634.407.837.41s.637-.3.846-.376a6.932,6.932,0,0,1,3.515-.325A9.074,9.074,0,0,1,44.64,4.276a4.63,4.63,0,0,1,1.277,1.161c.15.207.286.427.456.619.1.113.3.228.35.37a7.567,7.567,0,0,1,1.459-.645,3.6,3.6,0,0,1,2.055.078,8.172,8.172,0,0,1,3.241,2.3,9.2,9.2,0,0,1,1.2,1.611q.245.415.449.852a3.172,3.172,0,0,0,.2.444c.112.164.19.167.391.238a6.322,6.322,0,0,1,2.693,1.8,6.208,6.208,0,0,1,1.4,2.956,1.507,1.507,0,0,0,.056.364c.051.048.259.027.337.036a7.1,7.1,0,0,1,.809.143,6.678,6.678,0,0,1,1.423.513,7.435,7.435,0,0,1,3.643,4.353,8.832,8.832,0,0,1-.138,6.045,5.907,5.907,0,0,1-.449.888c-.107.173-.142.173-.072.355.078.2.219.4.312.594a8.535,8.535,0,0,1,.644,2.021,9.48,9.48,0,0,1,.111,3.494,5.045,5.045,0,0,1-.539,1.533,4.4,4.4,0,0,1-.473.686,4.089,4.089,0,0,1-.295.317,1.967,1.967,0,0,0-.186.173c-.122.157-.148.028-.085.259a10.343,10.343,0,0,0,.411.957c.127.324.24.652.345.984a14.518,14.518,0,0,1,.5,2.051,6.441,6.441,0,0,1-.454,3.983,3.985,3.985,0,0,1-1.127,1.342,4.181,4.181,0,0,1-.74.45c-.134.063-.306.091-.367.221s.032.417.055.571a9.553,9.553,0,0,1-.112,4.115,5.685,5.685,0,0,1-2.253,3.025,7.007,7.007,0,0,1-7.006.2,7.358,7.358,0,0,1-1.564-1.075c-1.2,1.616-3.669,1.565-5.423,1.1a7.79,7.79,0,0,1-4.948-4.09,3.3,3.3,0,0,1-5.237-.688,4.366,4.366,0,0,1-.444-1.437c-.036-.262-.013-.526-.04-.786a4.06,4.06,0,0,0-.381-.973,5.372,5.372,0,0,1-.408-1.94,9.846,9.846,0,0,1,.074-1.042,3.578,3.578,0,0,0-.107-.915,4.182,4.182,0,0,0,1.771-.221,3.5,3.5,0,0,0,1.369-.963,7.992,7.992,0,0,0,1.722-3.22c.779-2.551.459-5.611-2.105-7.011-1.2-.652-4.774-.65-6.2-.328-1.5.339-3.193,3.642-3.276,3.952-.051.19-.025.43-.2.558-.388.282-1.028-.207-1.314-.448A5.181,5.181,0,0,1,26.3,34.682a18.942,18.942,0,0,1-1.578-3.869c-.292-1.032-.478-2.093-.859-3.1A4.744,4.744,0,0,0,21.95,25.25a16.792,16.792,0,0,0-3.281-1.329,8.144,8.144,0,0,1-3.036-1.668,4.2,4.2,0,0,1-.521-.58c-.119-.167-.237-.485-.419-.591-.282-.164-.695.263-.939.418a10.846,10.846,0,0,0-3.021,3,18.66,18.66,0,0,0-2.005,3.57,10.343,10.343,0,0,1-1.349,2.977,5.692,5.692,0,0,1-3.393.258,4.288,4.288,0,0,1-1.852-1.6,2.49,2.49,0,0,1-.21-1.632c.063-.329.2-.634.271-.96a2.993,2.993,0,0,1,.249-.777A1.916,1.916,0,0,1,3.64,25.38a5.609,5.609,0,0,1-1.29-1.75,7.511,7.511,0,0,1-.668-2.28,2.768,2.768,0,0,1,.37-1.776,4.675,4.675,0,0,1,1.515-1.258,9.861,9.861,0,0,1-2.109-2.3A7.171,7.171,0,0,1,.2,10.181Z" transform="translate(0 0.009)"/></g><g transform="translate(8.21 154.504)"><path class="c" d="M92.142,0,48.278,116.1,17.531,201.669H0L42.264,0Z" transform="translate(36.274)"/><path class="d" d="M59.193,0c.477,39.834.132,93.468,1.243,95.951s69.111,56.584,69.111,56.584l-9.037,15.37S39.779,115.83,35.651,108.893,10.789,38.11,0,0Z" transform="translate(79.498)"/><g transform="translate(222.798 161.073) rotate(130)"><path class="b" d="M0,0,.842,17.689H18.531C31.112,8.845,51.381,3.369,51.381,3.369V0H19.373L8.423,1.685V0Z" transform="translate(0 0)"/></g><g transform="translate(0 198.932)"><path class="b" d="M55.65,19.163,54.74,0H35.584C21.953,9.582,0,15.513,0,15.513v3.65H34.668l11.861-1.825v1.825Z"/></g></g><g transform="translate(0 61.065)"><path class="e" d="M1.115,1.973C.1,2.6-1.011,4.966,1.675,6.814,8.363,11.417,18,19.473,19.3,22.127c2.664,5.425,25.972,75.246,25.972,75.246L65.183,97.3S32.446,23.339,31.041,19.85c-2.1-5.232,2.348-13.2,4.251-17.485-3-1.348-4.394.373-5.92,2.093-1.627,1.832-3.406,3.666-7.441,1.78C16.767,3.827,12.5,0,7.409,0A11.776,11.776,0,0,0,1.115,1.973Zm156.9,103.739,35.89,4.915a78.078,78.078,0,0,0,19.815,8.142c1.7.049,4.4-.571.375-3.933s-8.1-7.088-7.385-8.885,4.456-1.128,5.076-3.89q.62-2.762-18.209-.9L164.458,89.574Z" transform="translate(216.195 165.311) rotate(180)"/><path class="f" d="M0,89.613l15.673.325c6.876-34.392,29.7-54.5,75.847-42.977l10.13-44.177C58.4-6.7,18.509,7.463,6.5,54.2,3.389,66.3.664,78.937,0,89.613Z" transform="matrix(-0.996, 0.087, -0.087, -0.996, 124.631, 93.834)"/><path class="g" d="M0,0Q16.289,86.694,68.764,134.142h1.552l.013-.015,23.7-5.429c0-40.771,12.985-66.784,19.644-96.76H49.665C48.766,21.581,48.212,10.933,47.924,0Z" transform="translate(194.081 134.142) rotate(180)"/><path class="h" d="M13.008,0H0C1.954,22.447,5.4,41.968,10.529,59.68c-.7-11.823-.937-22.51-.7-31.76C10.127,16.142,11.2,6.75,13.008,0Z" transform="translate(144.69 102.203) rotate(180)"/></g></g></svg>