<svg xmlns="http://www.w3.org/2000/svg" width="116" height="20.2" viewBox="0 0 116 20.2"><defs><style>.a{fill:#f29d25;}</style></defs><path class="a" d="M10.861.7,8.286,5.925l-5.763.84a1.263,1.263,0,0,0-.7,2.154l4.17,4.063-.986,5.74a1.262,1.262,0,0,0,1.83,1.329l5.156-2.71,5.156,2.71a1.263,1.263,0,0,0,1.83-1.329l-.986-5.74,4.17-4.063a1.263,1.263,0,0,0-.7-2.154L15.7,5.925,13.126.7a1.263,1.263,0,0,0-2.264,0Z" transform="translate(-1.441 0.001)"/><path class="a" d="M10.861.7,8.286,5.925l-5.763.84a1.263,1.263,0,0,0-.7,2.154l4.17,4.063-.986,5.74a1.262,1.262,0,0,0,1.83,1.329l5.156-2.71,5.156,2.71a1.263,1.263,0,0,0,1.83-1.329l-.986-5.74,4.17-4.063a1.263,1.263,0,0,0-.7-2.154L15.7,5.925,13.126.7a1.263,1.263,0,0,0-2.264,0Z" transform="translate(22.274 0.001)"/><path class="a" d="M10.861.7,8.286,5.925l-5.763.84a1.263,1.263,0,0,0-.7,2.154l4.17,4.063-.986,5.74a1.262,1.262,0,0,0,1.83,1.329l5.156-2.71,5.156,2.71a1.263,1.263,0,0,0,1.83-1.329l-.986-5.74,4.17-4.063a1.263,1.263,0,0,0-.7-2.154L15.7,5.925,13.126.7a1.263,1.263,0,0,0-2.264,0Z" transform="translate(45.99 0.001)"/><path class="a" d="M10.861.7,8.286,5.925l-5.763.84a1.263,1.263,0,0,0-.7,2.154l4.17,4.063-.986,5.74a1.262,1.262,0,0,0,1.83,1.329l5.156-2.71,5.156,2.71a1.263,1.263,0,0,0,1.83-1.329l-.986-5.74,4.17-4.063a1.263,1.263,0,0,0-.7-2.154L15.7,5.925,13.126.7a1.263,1.263,0,0,0-2.264,0Z" transform="translate(69.706 0.001)"/><path class="a" d="M20.061,6.766l-5.774-.841L11.707.7A1.267,1.267,0,0,0,9.438.7L6.857,5.925l-5.774.84a1.262,1.262,0,0,0-.7,2.153L4.56,12.981,3.571,18.72A1.265,1.265,0,0,0,4.818,20.2a1.247,1.247,0,0,0,.587-.148l5.166-2.709,5.165,2.71a1.262,1.262,0,0,0,1.834-1.329l-.987-5.739L20.76,8.919a1.262,1.262,0,0,0-.7-2.154Zm-4.8,4.86-.715.7.169.981.77,4.475-4.029-2.114-.883-.463V2.688l2.013,4.075.441.893.987.144,4.506.656-3.26,3.171Z" transform="translate(94.856 0)"/></svg>