<svg xmlns="http://www.w3.org/2000/svg" width="38.774" height="49.074" viewBox="0 0 38.774 49.074"><defs><style>.a{fill:#b28b67;}.b{fill:#2c2c2c;}.c{fill:#8991dc;}.d{fill:rgba(0,0,0,0.2);}</style></defs><g transform="translate(0 0)"><g transform="translate(0 1.473)"><path class="a" d="M27.386,47.6,22,22.489c3-3.527,5.038-7.849,4.7-12.692C25.718-4.157,6.293-1.087,2.515,5.956S-.815,30.864,4.068,32.122c1.948.5,6.1-.728,10.319-3.273L11.737,47.6Z" transform="translate(0 0)"/></g><g transform="translate(2.608)"><path class="b" d="M3.444,1.311C3.8,1.1,4.553.646,4.933.482c.09-.039.717-.488.736-.483.477.161,1.857.754,1.975,1.268.018.039.037.076.054.107.2.355.375.717.546,1.089.374.809.7,1.656,1.009,2.492.6,1.638,1.125,3.31,1.609,4.987.49,1.707.907,3.434,1.373,5.148.671,2.465,1.53,4.871,2.2,7.339a14.466,14.466,0,0,1,.55,4.787.358.358,0,0,1,0,.059V27.3q-.029.374-.082.749c-.031.214-.065.429-.1.644-.608-1.213-1.073-2.549-1.565-3.818-.048-.124-.094-.249-.139-.375q-.239-.386-.485-.767c-1.033-1.6-2.071-3.2-3.065-4.837a87.153,87.153,0,0,0-5.661-8.637c-.624-.8-1.262-1.581-1.879-2.385Q1.479,7.187.983,6.479C.747,6.14-.28,4.961.091,4.253A19.146,19.146,0,0,1,3.444,1.311Z" transform="translate(-0.011 1.473)"/><path class="c" d="M.192,2.015c-.349.117-.179-.608.158-.863C1.915-.031,7.894-.46,13.1.62A25.248,25.248,0,0,1,23.424,5.461a17.428,17.428,0,0,1,5.125,8.667A25.186,25.186,0,0,1,29.1,24.544c-.114.765-.36,1.493-.5,2.242A17.363,17.363,0,0,1,28.1,29.26c-.168.5-.456.994-.6,1.5a3.445,3.445,0,0,0,.055,1.7,18.519,18.519,0,0,0,.779,2.821c.515,1.369,1.14,2.653,1.532,4.074.522,1.891,2.7,8.046,1.108,9.724H.642c.764-2.087,3.056-4.536,3.521-6.766.273-1.314.4-4.183.432-4.287.683-4.712,2.021-6.962,2.854-7.779S9.4,29.174,9.456,28.466c.237-2.93-.928-5.738-1.782-8.471-1.018-3.26-1.764-6.6-2.814-9.846C4.4,8.71,2,1.407.192,2.015Z" transform="translate(4.616 0)"/><path class="d" d="M13.913,25.91l-.456-.558C7.191,27.314,7.89,31.365,0,35.467l.659.4C7.565,33.016,9.18,26.9,13.913,25.91ZM8.842,4.143l-.5-.04c-.965,7.341-1.25,11.535-6.294,19.567l.537.164C7.774,16.84,8.6,11.133,8.842,4.143Zm8.705,5.442L17.1,9.369c-2.131,5.171-3.1,8.223-9.056,12.409L8.5,22.1C14.412,18.751,16.133,14.756,17.548,9.585Zm-14.089.944C4.507,5.846,3.575,1.44,2.46,0H1.754C2.9,3.629,3.144,5.567,2.9,10.525Z" transform="translate(13.688 5.385)"/></g></g></svg>