<svg xmlns="http://www.w3.org/2000/svg" width="37.688" height="36" viewBox="0 0 37.688 36"><defs><style>.a{fill:#f29d25;}</style></defs><path class="a" d="M35.757,12.059l-10.292-1.5-4.6-9.309a2.258,2.258,0,0,0-4.044,0l-4.6,9.308L1.93,12.057A2.25,2.25,0,0,0,.683,15.9l7.445,7.242L6.366,33.367A2.255,2.255,0,0,0,8.589,36a2.222,2.222,0,0,0,1.046-.264l9.207-4.829,9.207,4.83a2.25,2.25,0,0,0,3.269-2.369l-1.76-10.23L37,15.9a2.25,2.25,0,0,0-1.247-3.839ZM27.2,20.722l-1.274,1.239.3,1.749L27.6,31.687l-7.181-3.768-1.574-.825,0-22.3,3.588,7.263.786,1.591,1.759.256,8.032,1.169L27.2,20.722Z" transform="translate(0)"/></svg>