<svg xmlns="http://www.w3.org/2000/svg" width="37.802" height="35.017" viewBox="0 0 37.802 35.017"><path d="M33.48,33.852a2.165,2.165,0,0,1-1.458-.549,1.759,1.759,0,0,1,0-2.653,12.324,12.324,0,0,0,0-18.571,1.759,1.759,0,0,1,0-2.653,2.209,2.209,0,0,1,2.916,0,15.828,15.828,0,0,1,0,23.876A2.164,2.164,0,0,1,33.48,33.852Zm-7.325-3.537a2.164,2.164,0,0,1-1.458-.549,1.759,1.759,0,0,1,0-2.653,7.629,7.629,0,0,0,0-11.5,1.759,1.759,0,0,1,0-2.653,2.209,2.209,0,0,1,2.916,0,11.15,11.15,0,0,1,0,16.8A2.165,2.165,0,0,1,26.155,30.315Zm-5.714,8.558a1.446,1.446,0,0,1-.972-.366L8.875,28.868H3.945a1.317,1.317,0,0,1-1.375-1.251V15.112a1.317,1.317,0,0,1,1.375-1.251H8.875L19.469,4.222a1.475,1.475,0,0,1,1.5-.271,1.255,1.255,0,0,1,.849,1.155V37.622a1.317,1.317,0,0,1-1.374,1.251Z" transform="translate(-2.571 -3.856)"/></svg>