<svg xmlns="http://www.w3.org/2000/svg" width="21.818" height="15.872" viewBox="0 0 21.818 15.872"><defs><style>.a{fill:none;stroke:#1c2126;stroke-linecap:round;stroke-linejoin:round;stroke-width:1.818px;}</style></defs><g transform="translate(0.909 0.909)"><path class="a" d="M20.49,5.836a2.528,2.528,0,0,0-1.764-1.818,65.427,65.427,0,0,0-7.818-.382s-6.254,0-7.817.418A2.529,2.529,0,0,0,1.327,5.872a26.379,26.379,0,0,0-.418,4.809,26.4,26.4,0,0,0,.418,4.845,2.528,2.528,0,0,0,1.764,1.746c1.563.418,7.817.418,7.817.418s6.255,0,7.818-.418a2.529,2.529,0,0,0,1.764-1.818,26.344,26.344,0,0,0,.418-4.773A26.416,26.416,0,0,0,20.49,5.836Z" transform="translate(-0.908 -3.636)"/><path class="a" d="M8.863,13.654l5.227-2.973L8.863,7.709Z" transform="translate(-0.908 -3.636)"/></g></svg>