<svg xmlns="http://www.w3.org/2000/svg" width="27.992" height="31.849" viewBox="0 0 27.992 31.849"><defs><style>.a{stroke:#000;}</style></defs><path class="a" d="M27.635,28.921H8.355V25.064l5.784-9.64,7.923,9.64,5.573-3.856Zm0-12.532A2.892,2.892,0,1,1,24.743,13.5,2.892,2.892,0,0,1,27.635,16.388ZM30.22,8.829a27.316,27.316,0,0,0-2.626-3,27.323,27.323,0,0,0-3-2.626c-1.554-1.139-2.307-1.271-2.739-1.271H6.909A2.413,2.413,0,0,0,4.5,4.338V30.367a2.413,2.413,0,0,0,2.41,2.41H29.081a2.413,2.413,0,0,0,2.41-2.41v-18.8c0-.432-.132-1.185-1.271-2.739Zm-3.99-1.64A26.3,26.3,0,0,1,28.417,9.64H23.779V5a26.268,26.268,0,0,1,2.451,2.186Zm3.333,23.178a.489.489,0,0,1-.482.482H6.909a.489.489,0,0,1-.482-.482V4.338a.489.489,0,0,1,.482-.482H21.851V10.6a.964.964,0,0,0,.964.964h6.748Z" transform="translate(-3.999 -1.428)"/></svg>