<svg xmlns="http://www.w3.org/2000/svg" width="21.664" height="21.704" viewBox="0 0 21.664 21.704"><defs><style>.a{fill:none;stroke:#1c2126;stroke-linecap:round;stroke-linejoin:round;stroke-width:1.667px;}</style></defs><g transform="translate(-0.16 -0.143)"><path class="a" d="M23.139,11.375h-.806v-.042h-9v4h5.652a6,6,0,1,1-1.671-6.481l2.828-2.828a9.963,9.963,0,1,0,3,5.351Z" transform="translate(-2.343 -2.334)"/><path class="a" d="M5.255,8.7l3.3,2.417a6.009,6.009,0,0,1,9.576-2.243l2.839-2.837A10.017,10.017,0,0,0,5.255,8.7Z" transform="translate(-3.108 -2.334)"/><path class="a" d="M14.1,31.379a9.988,9.988,0,0,0,6.729-2.606l-3.107-2.627a6.006,6.006,0,0,1-9.283-2.768L5.167,25.9A10.026,10.026,0,0,0,14.1,31.379Z" transform="translate(-3.07 -10.38)"/><path class="a" d="M29.84,16.708h-.808v-.041H20v4.014h5.672a6.046,6.046,0,0,1-2.051,2.8h0L26.727,26.1a9.711,9.711,0,0,0,3.307-7.43A10.066,10.066,0,0,0,29.84,16.708Z" transform="translate(-9.044 -7.71)"/></g></svg>