<svg xmlns="http://www.w3.org/2000/svg" width="27.219" height="27.219" viewBox="0 0 27.219 27.219"><defs><style>.a{fill:none;stroke:#000;stroke-linecap:round;stroke-linejoin:round;stroke-width:2.667px;}</style></defs><g transform="translate(1.333 1.333)"><path class="a" d="M6.667,4H25.333A2.667,2.667,0,0,1,28,6.667V25.333A2.667,2.667,0,0,1,25.333,28H6.667A2.667,2.667,0,0,1,4,25.333V6.667A2.667,2.667,0,0,1,6.667,4Z" transform="translate(-4 -4)"/><path class="a" d="M13.333,11.333a2,2,0,1,1-2-2A2,2,0,0,1,13.333,11.333Z" transform="translate(-4 -4)"/><path class="a" d="M28,20l-6.667-6.667L6.667,28" transform="translate(-4 -4)"/></g></svg>