<svg xmlns="http://www.w3.org/2000/svg" width="26.363" height="26.411" viewBox="0 0 26.363 26.411"><defs><style>.a{fill:none;stroke:#1c2126;stroke-linecap:round;stroke-linejoin:round;stroke-width:2.409px;}</style></defs><g transform="translate(0.181 0.204)"><path class="a" d="M26.5,20.377V23.99A2.408,2.408,0,0,1,23.87,26.4a23.833,23.833,0,0,1-10.394-3.7A23.5,23.5,0,0,1,6.25,15.476a23.834,23.834,0,0,1-3.7-10.442,2.408,2.408,0,0,1,2.4-2.625H8.563A2.407,2.407,0,0,1,10.971,4.48a15.526,15.526,0,0,0,.843,3.384,2.406,2.406,0,0,1-.542,2.541l-1.529,1.53a19.272,19.272,0,0,0,7.226,7.226l1.529-1.53a2.41,2.41,0,0,1,2.542-.542,15.4,15.4,0,0,0,3.384.843A2.409,2.409,0,0,1,26.5,20.377Z" transform="translate(-1.519 -1.408)"/></g></svg>