<svg xmlns="http://www.w3.org/2000/svg" width="113.69" height="272.097" viewBox="0 0 113.69 272.097"><defs><style>.a{fill:none;stroke:#cbcbcb;stroke-width:8px;}.b{fill:#afb9c5;}.c{fill:#c5cfd6;}.d{fill:#f2f2f2;}</style></defs><g transform="translate(-0.076 -0.012)"><path class="a" d="M60,29.233,72.343,16.872a5.315,5.315,0,0,1,7.521,0h0l32.862,32.9a10.649,10.649,0,0,1,3.114,7.526V275.234" transform="translate(-20.625 -6.456)"/><rect class="b" width="38.411" height="3.844" rx="1.922" transform="translate(75.356 268.266)"/><g transform="translate(31.287 0) rotate(45)"><path class="c" d="M21.946.009h0A21.967,21.967,0,0,1,43.9,21.963l.007,18.621L.016,40.566.009,21.946A21.924,21.924,0,0,1,21.946.009Z"/><path class="d" d="M43.893,4.34c0,2.387-9.824,4.318-21.944,4.313S0,6.709,0,4.322,9.825,0,21.946.009,43.892,1.953,43.893,4.34Z" transform="translate(0.133 35.619)"/></g></g></svg>