<svg xmlns="http://www.w3.org/2000/svg" width="223.422" height="298.11" viewBox="0 0 223.422 298.11"><defs><style>.a{fill:#f2f2f2;}</style></defs><path class="a" d="M208.656,281.1a50.569,50.569,0,0,1-1.081,6.487,19.376,19.376,0,0,0,1.081-6.487Zm-11.71-50.826c-6.29-13.326-15.261-24.843-25.6-35.091,2.066-7.506,22.152-19.228,9.452-25.434-6.744-3.281-13.14,3.084-14.24,9.528-.754,4.428,1.033,9.848,2.847,14.012q-4.87-4.679-10.064-9.024c-4.775-4-9.651-7.877-14.57-11.7,7.372-7.691,13.619-28.9,3.045-31.76-15.615-4.21-6.734,23.807-5.385,29.074a.835.835,0,0,0,.7-.308c-.06.492-.133,1.019-.228,1.551-9.411-7.271-18.948-14.384-28.2-21.85.766-.631,1.914-2.945,2.846-4.2a45.5,45.5,0,0,0,5.509-8.987c2.218-5.118,4.194-13.2-2.535-15.79-7.317-2.823-10.243,6.355-10.011,11.727.161,3.714,1.356,7.189,2.073,10.8.225,1.127-.141,6.276,1.289,3.994a10.965,10.965,0,0,0,.048,1.819q-2.491-2.021-4.953-4.086a1.921,1.921,0,0,0,.106-.625,1.858,1.858,0,0,0-2.748-1.608q-3.25-2.78-6.43-5.654c-4.481-4.069-9.029-8.258-13.553-12.542.888-.847.461-1.935,1.286-2.829s2.51-1.45,3.49-2.29a24.727,24.727,0,0,0,5.836-8.025c2.3-4.82,5.068-14.827-2.478-16.671-7.778-1.9-11.167,7.765-11.349,13.709a151.214,151.214,0,0,0,2.217,15.155c-8.372-7.964-16.63-16.249-24.163-24.724,2.143-.132,7.989-4.842,9.155-6.1,2.844-3.08,7.27-9.787,1.836-12.929-4.831-2.787-10.361,1.906-12.135,6.277A60.03,60.03,0,0,0,59,95.949c-3.122-3.6-6.111-7.225-8.906-10.873q-2.8-3.639-5.27-7.483a3.5,3.5,0,0,0,.978-1.068c7.724-1.731,17.022-14.41,7.647-18.161-4.463-1.784-8.972,2.616-10.929,6.128-.4.719-.926,4.252-1.358,7.041A146.093,146.093,0,0,1,29.5,44.591a1.7,1.7,0,0,0,1.245-1.648c3.67-2.355,6.564-4.308,8.988-8.594,1.506-2.662,4.153-8.7-.743-9.881-6.372-1.532-9.811,8.258-10.076,13-.031.551.054,2.145.152,3.6a2.108,2.108,0,0,0-.654.046c-1.748-5.8-3.21-11.688-4.438-17.6,3.368-1.281,3.016-19.3.6-21.739-5.4-5.466-8.559,3-8.056,7.368.592,5.145,3.177,9.718,6.181,13.74.322.425.235.409.28-.21a1.233,1.233,0,0,0,.332.674,78.306,78.306,0,0,0,.125,7.918A183.278,183.278,0,0,0,26.87,51.76q.555,2.456,1.229,4.867a39.977,39.977,0,0,0-8.182-4.666c-3.857-1.492-9.761-3.01-13.355.047a6.307,6.307,0,0,0-.225,9.441c3.2,3.22,8.708,2.807,12.809,2.262C21,63.465,30.9,62.147,28.462,60.644a8.039,8.039,0,0,1,.99.41q.39,1.178.811,2.346c-.056.037-.1.077-.165.114.066-.033.112-.068.17-.1A91.394,91.394,0,0,0,41.7,85.339a21.492,21.492,0,0,0-5.219-1.105c-5.223-.384-15.926,4.22-9.76,10.824,5.912,6.331,14.2-1.228,20.467-2.539a295.76,295.76,0,0,0,21.251,23.618,1.685,1.685,0,0,0-.988.914c-2.915-1.292-5.982-3.2-8.639-3.619-3.835-.605-11.637-.685-14.325,2.86-3.307,4.359.65,7.551,4.856,8.133,6.1.845,13.852-2.521,19.558-4.819a1.922,1.922,0,0,0,1.792-.7c.126-.05.252-.1.376-.144,7.581,7.506,15.422,14.736,23.21,21.8h-.24a20.106,20.106,0,0,0-6.392-2.52c-5.256-.993-11.362-.679-15.377,3.3-4,3.958-5.142,10.576-.582,14.546C80.816,163.836,92.611,144,96.95,142.974c7.911,7.1,16.226,13.688,24.659,20.128a14.381,14.381,0,0,0-2.86-.429c-7.956-.342-26.03,10.337-15.813,19.377,8.9,7.877,17.862-8.653,24.392-14.612,7.943,6,15.925,11.948,23.705,18.157a21.659,21.659,0,0,0-12.316.724c-4.426,1.6-11.506,5.373-8.344,11.3,3.216,6.025,11.784,2.757,16.22.559,2.42-1.2,7.194-5.068,11.474-6.817,12.45,10.579,23.373,22.377,31.914,36.5a130.789,130.789,0,0,1,12.639,28.145c1.99,6.273,5.812,16.783,5.593,25.1C210.458,264.365,203.786,244.762,196.946,230.271ZM22.7,32.186c-.663,0-3.149-6.72-3.931-7.714a22.405,22.405,0,0,0-8.864-6.428C4.464,15.691-2.452,19.114.864,25.916c2.647,5.43,9.818,6.524,16.029,6.523C19.015,32.439,21.025,32.312,22.7,32.186Z" transform="translate(15.051) rotate(3)"/></svg>