<svg xmlns="http://www.w3.org/2000/svg" width="162.258" height="214.736" viewBox="0 0 162.258 214.736"><defs><style>.a{fill:#c1dee2;opacity:0.2;}</style></defs><path class="a" d="M0,202.76a23.633,23.633,0,0,0,1.081,4.324A9.134,9.134,0,0,1,0,202.76Zm8.652-36.254a90.193,90.193,0,0,1,18.69-25.374c-1.508-5.426-16.174-13.9-6.9-18.391,4.924-2.372,9.6,2.23,10.4,6.89.551,3.2-.754,7.12-2.078,10.132q3.555-3.383,7.348-6.525c3.486-2.9,7.047-5.7,10.638-8.459-5.383-5.561-9.944-20.9-2.222-22.965,11.4-3.045,4.917,17.214,3.931,21.024a.614.614,0,0,1-.512-.223c.044.355.1.737.165,1.121,6.872-5.258,13.836-10.4,20.593-15.8a29.34,29.34,0,0,1-2.077-3.034,32.793,32.793,0,0,1-4.028-6.5c-1.62-3.7-3.062-9.545,1.851-11.417,5.343-2.041,7.479,4.6,7.309,8.479-.117,2.686-.991,5.2-1.514,7.81-.163.814.1,4.538-.941,2.888a7.919,7.919,0,0,1-.035,1.315q1.82-1.461,3.616-2.954a1.388,1.388,0,0,1-.077-.451,1.357,1.357,0,0,1,2.006-1.164q2.373-2.01,4.695-4.088c3.271-2.942,6.592-5.971,9.9-9.069-.649-.613-.337-1.4-.939-2.045s-1.833-1.048-2.548-1.655a17.885,17.885,0,0,1-4.261-5.8c-1.678-3.486-3.7-10.722,1.809-12.056,5.679-1.377,8.156,5.614,8.289,9.913a108.242,108.242,0,0,1-1.62,10.957c6.11-5.763,12.139-11.755,17.64-17.883-1.565-.1-5.833-3.5-6.685-4.414-2.076-2.227-5.309-7.078-1.341-9.35,3.527-2.014,7.565,1.378,8.86,4.539a42.878,42.878,0,0,1,.762,7.418c2.28-2.6,4.462-5.224,6.5-7.863q2.04-2.63,3.847-5.41a2.532,2.532,0,0,1-.714-.774c-5.64-1.251-12.429-10.42-5.583-13.132,3.259-1.289,6.551,1.892,7.98,4.431a32.463,32.463,0,0,1,.991,5.091,105.023,105.023,0,0,0,8.512-19.481A1.233,1.233,0,0,1,130,31.05c-2.68-1.7-4.792-3.115-6.562-6.215-1.1-1.925-3.032-6.292.543-7.144,4.652-1.107,7.163,5.971,7.358,9.4.022.4-.04,1.551-.111,2.606a1.572,1.572,0,0,1,.477.034c1.277-4.193,2.344-8.452,3.24-12.726-2.458-.926-2.2-13.953-.44-15.718,3.941-3.953,6.25,2.172,5.884,5.327a20.837,20.837,0,0,1-4.514,9.934c-.234.307-.171.3-.2-.152a.883.883,0,0,1-.242.487,55.926,55.926,0,0,1-.091,5.726,131.343,131.343,0,0,1-2.5,14.811q-.406,1.778-.9,3.519a29.3,29.3,0,0,1,5.974-3.373c2.817-1.078,7.127-2.177,9.751.034a4.531,4.531,0,0,1,.163,6.827c-2.335,2.327-6.358,2.03-9.352,1.636-1.354-.178-8.586-1.131-6.8-2.218a5.968,5.968,0,0,0-.723.3q-.285.851-.592,1.7c.042.027.077.055.121.083-.048-.024-.082-.05-.124-.074a65.868,65.868,0,0,1-8.347,15.852,15.838,15.838,0,0,1,3.811-.8c3.814-.277,11.629,3.051,7.127,7.827-4.317,4.578-10.371-.888-14.944-1.836a214.662,214.662,0,0,1-15.518,17.077,1.228,1.228,0,0,1,.721.661c2.129-.934,4.369-2.312,6.309-2.616,2.8-.437,8.5-.5,10.459,2.068,2.414,3.153-.475,5.461-3.547,5.882-4.453.61-10.113-1.823-14.281-3.485a1.406,1.406,0,0,1-1.308-.509l-.274-.1C95.028,91.3,89.3,96.529,83.615,101.638h.176a14.776,14.776,0,0,1,4.667-1.822c3.838-.718,8.3-.49,11.228,2.384s3.755,7.647.426,10.518c-6.665,5.749-15.277-8.593-18.446-9.337-5.776,5.135-11.847,9.9-18,14.553a10.521,10.521,0,0,1,2.088-.309c5.809-.248,19.006,7.474,11.547,14.01-6.5,5.7-13.043-6.256-17.811-10.565-5.8,4.337-11.627,8.639-17.309,13.129a15.964,15.964,0,0,1,8.993.523c3.232,1.155,8.4,3.885,6.093,8.169-2.348,4.355-8.6,1.993-11.843.4-1.766-.867-5.252-3.665-8.377-4.929a108.41,108.41,0,0,0-23.3,26.393,94.138,94.138,0,0,0-9.238,20.351c-1.453,4.541-4.243,12.14-4.084,18.15C-1.213,191.158,3.658,176.983,8.652,166.506ZM135.412,22.772c.473,0,2.249-4.8,2.807-5.511a16.008,16.008,0,0,1,6.332-4.591c3.889-1.681,8.828.764,6.46,5.623-1.892,3.879-7.016,4.659-11.453,4.659C138.045,22.953,136.61,22.862,135.412,22.772Z" transform="translate(0 7.936) rotate(-3)"/></svg>