<svg xmlns="http://www.w3.org/2000/svg" width="80.795" height="94.058" viewBox="0 0 80.795 94.058"><defs><style>.a{fill:#f2f2f2;}</style></defs><path class="a" d="M0,0C0,23.014,1.816,41.671,26.193,41.671S52.386,23.014,52.386,0" transform="translate(16.668 52.387)"/><path class="a" d="M50.114,38.027a48.184,48.184,0,0,0-2.394,4.72,64.59,64.59,0,0,1,.655-9.976c.85-5.762,2.149-11.494,3.369-17.216.877-4.112.822-11.5,4.15-14.777.913-.708,1.132.681,1.132,1.284.011.127,0-2.461-.888-2.01C50.872,2.772,49.166,11.323,47.48,15.6a82.4,82.4,0,0,0-5.414,19.14,42.875,42.875,0,0,0-.364,4.924c-.179-.438-.347-.88-.533-1.317a88.889,88.889,0,0,0-12.256-20.5C27.653,16.275,11.821.7,10.582,3.086a1.643,1.643,0,0,0,.769.862c.023.026.024.012.01-.027.93,1.5,3.574,3.822,4.4,5.138a99.415,99.415,0,0,1,5.32,10.274c3.458,7.286,6.666,14.645,9.776,22.02.724,1.718,1.479,3.426,2.249,5.129C25.165,35.033,14.576,24.639,0,18.689c4.978,2.533,8.242,7.3,11.6,10.947,4.055,4.4,8.326,8.683,12.389,13.079C28.785,47.9,34.423,53.362,39.032,59.1c4.465,9.373,8.8,18.756,11.481,28.609-1.1-3.4-.086-8.109-.274-11.681a78.92,78.92,0,0,0-.937-8.479,17.411,17.411,0,0,1,1.268,3.722c-.2-1.982-.432-3.952-.68-5.912.638-1.835,1.264-3.547,1.686-4.957a127.354,127.354,0,0,1,8.262-21.274A189.9,189.9,0,0,1,70.886,20.255c1.9-2.861,3.818-5.711,5.728-8.565,1.25-1.869,2.441-4.861,4.181-6.652C69.544,15.324,57.252,25.685,50.114,38.027" transform="translate(0 0.001)"/></svg>