<svg xmlns="http://www.w3.org/2000/svg" width="63.644" height="49.651" viewBox="0 0 63.644 49.651"><defs><style>.a{fill:#4525f2;}</style></defs><path class="a" d="M661.865,213.4A22.423,22.423,0,0,1,651,222.373c-3.182,1.225-7.219,1.53-9.607-.9-1.73-1.763-2.075-4.476-1.829-6.933.766-7.671,6.532-14.351,13.685-17.225s15.412-2.246,22.551.664c6.736,2.746,13.133,8.37,13.495,15.635.186,3.723-1.162,7.822.836,10.969,1.505,2.37,4.412,3.333,7.016,4.382s5.4,2.705,5.933,5.462a6.111,6.111,0,0,1-1.793,5.21,14.146,14.146,0,0,1-4.816,3.02c-4.247,1.808-8.921,2.935-13.483,2.236s-8.974-3.477-10.759-7.733c-1.375-3.278-1.093-6.976-.935-10.527s.111-7.332-1.785-10.339-6.3-4.69-9.131-2.543" transform="translate(-639.49 -195.446)"/></svg>