<svg xmlns="http://www.w3.org/2000/svg" width="86.607" height="63.442" viewBox="0 0 86.607 63.442"><defs><style>.a{fill:#4525f2;}</style></defs><path class="a" d="M672.619,252.119a17.87,17.87,0,0,1-12.285-3.259,33.7,33.7,0,0,1-8.81-9.45,61.233,61.233,0,0,1-8.622-20.034,11.744,11.744,0,0,1-11.443,3.981c-6.816-1.53-10.9-9.483-9.575-16.342s6.956-12.3,13.377-15.048,13.577-3.207,20.563-3.192c4.607.01,9.3.225,13.628,1.805s8.291,4.729,9.829,9.071c.964,2.723.932,5.736,2.028,8.408,1.989,4.851,7.149,7.5,11.992,9.51s10.107,4.051,12.963,8.448c3.225,4.965,2.294,11.9-1.26,16.631s-9.261,7.482-15.07,8.63-11.792.864-17.706.576" transform="translate(-621.634 -188.775)"/></svg>