<svg xmlns="http://www.w3.org/2000/svg" width="240.204" height="337.977" viewBox="0 0 240.204 337.977"><defs><style>.a{fill:#b28b67;}.b{fill:#191847;}.c{fill:#997659;}.d{fill:#e4e4e4;}.e{fill:#707ae0;}.f{fill:#808bf7;}.g{fill:#3848ed;}.h{fill:#dde3e9;}.i{fill:rgba(0,0,0,0.1);}.j{fill:rgba(255,255,255,0.2);}</style></defs><g transform="translate(0.006)"><g transform="translate(14.642)"><g transform="translate(93.609 28.951)"><path class="a" d="M0,55.612,6.288,26.276C2.782,22.155.408,17.107.8,11.447,1.947-4.856,24.619-1.27,29.028,6.959s3.887,29.1-1.813,30.573c-2.273.586-7.116-.85-12.044-3.824l3.094,21.9Z" transform="translate(0 -0.001)"/></g><path class="b" d="M112.227,26.425c-2.407-.4-8.889-.667-10.084-.667-.764,0-1.591.175-2.044-.527-.371-.577-.235-1.547-.345-2.215-.128-.775-.31-1.538-.5-2.306a23.435,23.435,0,0,0-2.429-6.178,18.975,18.975,0,0,0-8.991-8.145A28.841,28.841,0,0,0,74.187,4.507c-4.9.4-9.334,2.016-13.96,3.54A29.227,29.227,0,0,1,46.591,9.361c-4.644-.712-8.153-3.234-12.071-5.627A22.468,22.468,0,0,0,21.184.052,25.652,25.652,0,0,0,9.021,4.67a19.85,19.85,0,0,0-7.847,8.909C-.542,17.747-.541,22.316,2.281,26c4.091,5.333,11.684,6.715,18,6.578a34.362,34.362,0,0,0,10.691-1.962c4.6-1.62,8.578-4.366,12.881-6.593a33.5,33.5,0,0,1,6.3-2.522c2.123-.6,4.216-.876,6.139.409a29.075,29.075,0,0,0,6.184,3.544A19.925,19.925,0,0,0,69.452,26.7c4.628-.036,9.19-1.479,13.684-2.446,3.665-.788,7.587-1.574,11.323-.816,1.559.317,3.837.969,4.4,2.591-9.478,1.72-13.2,13.455-10.529,22.069,1.442,4.65,10.112,10.085,13.482,7.64,2.136-1.549.839-3.581,0-4.924-1.607-2.57-2.157-5.871.817-7.661,2.565-1.543,5.261,2.121,5.313,2.114.7-.056,6.8-3.5,10.991-8.535,4.139.245,4.767-2.487,3.777-4.721S115.552,26.973,112.227,26.425Z" transform="translate(0 0)"/></g><g transform="translate(-0.006 155.894)"><path class="c" d="M0,0,56.551,94.643l42.4,80.011h9.132L37.043,0Z" transform="translate(104.119)"/><g transform="translate(196.206 166.337)"><path class="d" d="M3.4,3.913A1.522,1.522,0,0,0,1.453,4.938L0,10.063a49,49,0,0,0,.686,6.014H43.61s1.673-5.538-1.931-5.979-5.99-.8-5.99-.8L15.739.4A.761.761,0,0,0,14.724.8l-1.28,3.114S10.106,5.477,8.02,5.477Z" transform="translate(0 -0.331)"/></g><path class="e" d="M96.577,161.843l17.611-5.333s-11.574-34.635-28.37-76.23S49.742,0,49.742,0H0S21.436,48.935,45.453,88.928A679.7,679.7,0,0,0,96.577,161.843Z" transform="translate(94.715)"/><path class="a" d="M86.552,0c-5.337,33.258-15.632,75.749-16.6,77.06Q68.977,78.372,0,100.525l1.972,8.061q82.255-11.88,86.68-18.435C93.082,83.6,115.191,31.818,123.754,0Z" transform="translate(13.423)"/><path class="f" d="M0,93.556l3.474,12.983q61.521,5.4,75.392-7.806T110.481,0H63.052Q51.809,70.034,50.481,72.975T0,93.556Z" transform="translate(29.586)"/><g transform="translate(12.992 99.536) rotate(79)"><path class="d" d="M2.866,3.008a1.281,1.281,0,0,0-1.644.863L0,8.176A41.1,41.1,0,0,0,.577,13.23l36.134.005s1.409-4.653-1.627-5.025-5.042-.671-5.042-.671L13.248.056a.641.641,0,0,0-.853.34L11.315,3.013A14.525,14.525,0,0,1,6.75,4.322Z" transform="translate(0 0)"/></g></g><g transform="translate(47.919 70.666)"><path class="a" d="M.933,68.47c-.85-.525-1.78-2.5.468-4.042,5.6-3.844,13.67-10.571,14.76-12.786,2.23-4.529,9.825-48.674,9.825-48.674l15.9.064s-14.73,47.6-15.9,50.513c-1.761,4.369,1.966,11.02,3.559,14.6-2.511,1.125-3.679-.311-4.956-1.748-1.362-1.531-2.85-3.062-6.228-1.488-4.323,2.014-7.9,5.21-12.158,5.209A9.878,9.878,0,0,1,.933,68.47Zm136-42.836L114.517,12.4,121.677,0l21.559,21.054a65.267,65.267,0,0,1,15.419,8.872c.9,1.089,1.882,3.173-2.357,2.242s-8.74-1.723-9.539-.343,1.551,3.495.078,5.3a.557.557,0,0,1-.451.216Q144.36,37.341,136.934,25.634Z" transform="translate(0.001 67.898)"/><path class="g" d="M0,1.7,6.457,0Q27.092,40.857,72.306,71.768L53.315,99.474C22.32,69.089,2.021,36.719,0,1.7Z" transform="matrix(0.996, 0.087, -0.087, 0.996, 71.331, 2.37)"/><path class="h" d="M0,86.851H58.6S38.236,37.283,38.236,2.636L20.559,0C6.667,22.367,2.743,49.9,0,86.851Z" transform="translate(42.495)"/><path class="g" d="M0,111.993C6.409,39.613,46.807,0,46.807,0l.014.012L46.828,0h1.152c2.071.072,6.309.256,6.309.256l4.271,12.219c.678,22.347,7.916,90.073,7.916,90.073H28.12q.1,4.657.442,9.443Z" transform="translate(15.859)"/><path class="i" d="M10.736,37.711H.051A194.845,194.845,0,0,1,2.942,0,205.079,205.079,0,0,0,5.52,21.092c1.392,7.549,3.147,13.139,5.216,16.617Z" transform="translate(43.935 65.14)"/><path class="j" d="M0,8.815,18.942,0V8.815Z" transform="translate(52.473 70.417)"/></g></g></svg>