<svg xmlns="http://www.w3.org/2000/svg" width="277.987" height="433.115" viewBox="0 0 277.987 433.115"><defs><style>.a{opacity:0.7;}.b{fill:#69a1ac;}.c{fill:#89c5cc;}</style></defs><g class="a"><path class="b" d="M29.293.044C44.052.825,61.306,11.3,61.2,27.422c-.081,11.713-1.648,23.236-1.1,35A94.245,94.245,0,0,0,65.749,89.87c3.053,8.514,10.428,16.264,11.624,25.143.763,5.657-.8,13.338-3.223,18.539-2.941,6.324-1.69,5.931,2.218,11.907,7.658,11.712,14.413,23.606,18.657,37.079,6.114,19.4,9.121,41.653,3.993,61.653-.652,2.54-2.076,11.749-5.7,12.023-4.043.306-1.632-4.793-1.24-6.481,2.5-10.771,4.7-20.183,4.235-31.437-1.789-43.422-29.5-74.819-45.664-113.211-.9-1.987-2.751-6.687-4.054-9.8-2.057-4.909-3.687-14.011-6.769-17.815-5.806-7.166-1.212,6.5-.209,9.118,1.267,3.316,2.674,6.846,4.022,9.777,6.15,13.573,13.048,28.41,19.4,42.4-34.273,4.113-53.618-38.608-59.82-66.01C-1.892,50.179-5.39-1.716,29.293.044" transform="matrix(0.995, -0.105, 0.105, 0.995, 0, 127.766)"/><path class="c" d="M110.064.131C85.39,2.089,69.549,18.37,62.176,41.143c-3.974,12.272-4.43,24.879-6.638,37.491-3.322,18.974-10.47,33.354-24.44,46.872a47.173,47.173,0,0,0-9.782,13.084,55.73,55.73,0,0,0-11.294,16.14c-3.676,8.113-4.716,17.847-.472,25.935,1.141,2.174,3.988,6.539,6.938,8.522C5.441,212.713-.632,238.477.052,264.21c.414,15.533,1.172,31.073,2.057,46.587.238,4.166,1.6,11.044,3.632,4.058,1.865-6.39-.474-16.422-.69-23.1C4,259.237,3.1,229.667,16.485,199.284q2.106-4.777,4.442-9.477a3.151,3.151,0,0,0,.261-.178c.059.045.113.1.172.139.1-.177.235-.387.393-.622a8.382,8.382,0,0,0,1.2-1.686c1.187-1.646,2.531-3.579,2.539-4.637v-.029c8.287-13.528,17.78-26.311,27.475-38.844-.073.091,10.517-14.327,8.879-6.354-.789,3.843-8.578,11.16-11.724,15.23A379.453,379.453,0,0,0,28.2,184.449c-.914.525-2.2,3.1-3.139,5.024-.516.973-1,1.954-1.469,2.809,24.062,7.95,42.78-8.064,55.543-26.69.015-.022.029-.045.044-.066,3.884-5.147,7.863-10.257,12.833-14.325,8.293-6.789,17.174-7.986,26.952-11.328,26.664-9.11,38-43.667,41.6-69.308,4.062-28.928-15.808-73.286-50.5-70.433" transform="translate(116.9 83.914)"/><path class="c" d="M106.036,2.471C77.292,25.046,60.092,59.545,45.711,92.229c-16.057,36.5-28.558,74.108-34.384,113.59C7.5,231.758,3.121,257.786.992,283.933a278.694,278.694,0,0,0-.956,27.959c.015.766.422,21.569,4.213,17.268,2.156-2.446-.382-21.575-.338-24.7.248-17.576,2.187-35.043,4.738-52.423,4.2-28.614,7.36-57.225,14.272-85.351a97.5,97.5,0,0,1,3.6-12.651c1.7-4.28.057-2.538,3.8-3.8,3.64-1.227,7.808-.393,11.637-2.037,15.188-6.52,25.411-27.312,32.993-40.832,8.672-15.461,15-32.358,20.51-49.136A363.318,363.318,0,0,0,105.62,20.881c.857-4,1.467-8.216,2.819-12.074.364-1.041,1.7-2.784,1.8-3.738.2-2.018-.846-3.369-.708-5.069q-1.774,1.2-3.5,2.467" transform="translate(72.877 15.346) rotate(-8)"/><path class="c" d="M0,0A78.922,78.922,0,0,0,78.922,78.922,78.922,78.922,0,0,0,157.843,0" transform="translate(40.141 354.193)"/><path class="b" d="M82.6,98a12.124,12.124,0,0,1-8.262-2.895,16.527,16.527,0,0,1-4.451-7.136c-2.027-5.824-2.219-12.98-2.346-17.716-.158-5.938-.584-12.853-2.541-19.1a34.341,34.341,0,0,0-3.848-8.366,33.822,33.822,0,0,0-6.53-7.471c-1.333-1.149-2.754-2.242-4.129-3.3-1.225-.944-2.493-1.92-3.693-2.93l-.574-.482c-3.857-3.232-7.845-6.573-8.333-11.858-.272-2.937.2-5.1,1.411-6.417A6.114,6.114,0,0,1,44.08,8.634a19.7,19.7,0,0,1,4.058.5c.213.046.786.262,1.58.562,2.263.856,6.05,2.287,8.07,2.287.621,0,1.029-.14,1.213-.415a1.2,1.2,0,0,0-.053-1.126c-.466-1.116-2.067-2.1-4.758-2.93C48.776,6.925,43.665,6.4,40.62,6.4a10.1,10.1,0,0,0-1.968.14,29.867,29.867,0,0,0-14.526,8.072A51.435,51.435,0,0,0,14.1,29.02C7.987,41.559,5.65,55.511,4.8,62.712c-.23,1.951-.438,4.064-.636,6.461H0A139.785,139.785,0,0,1,1.545,53.6C2.727,46.631,5.73,33.184,12.559,21.483A47.7,47.7,0,0,1,23.32,8.426a29.961,29.961,0,0,1,14.934-6.68,22.17,22.17,0,0,1,2.408-.088c1.567,0,3.454.06,5.315.168A13.894,13.894,0,0,1,51.87.091C52.694.031,53.54,0,54.384,0A42.885,42.885,0,0,1,68.6,2.6,61.28,61.28,0,0,1,82.17,9.48,70.79,70.79,0,0,1,93.9,19.3a59.349,59.349,0,0,1,8.683,11.392c3.546,6.154,5.367,13.529,5.414,21.92a70.785,70.785,0,0,1-3.791,22.536,51.544,51.544,0,0,1-7.6,14.891C92.531,95.262,87.884,97.941,82.8,98Z" transform="translate(120.936 285.196)"/></g></svg>