<svg xmlns="http://www.w3.org/2000/svg" width="301.632" height="457.149" viewBox="0 0 301.632 457.149"><defs><style>.a{opacity:0.5;}.b{fill:#69a1ac;}.c{fill:#c1dee2;}.d{fill:#89c5cc;}</style></defs><g class="a" transform="translate(0)"><path class="b" d="M70.514,25.346C75.057,18.868,83.488,2.416,89.882.1,94-1.39,92.8,14.033,92.851,16.974c.2,11.377-.91,22.683-2.277,33.965C88.109,71.285,80.051,89.406,69,106.723c-5.687,8.911-12.358,17.93-21.6,23.49-4.253,2.56-9.37,2.989-13.57,5.2-4.889,2.563-2.23.487-4.43,5.587-3.061,7.077-4.04,16.206-5.457,23.757-6.5,34.66-22.243,217.9-19.518,253.158.242,3.125-4.115,3.873-4.333.057-1.156-20.229,8.849-160.318,13.9-206.131S24.148,125.555,29.27,109.705C35.481,90.476,46.7,67.351,56.045,49.419A213.235,213.235,0,0,1,70.514,25.346Z" transform="translate(122.166 0.001)"/><path class="c" d="M108.56,2.463c11.822-8.679,24.619,7.7,13.921,16.382-5.914,4.8-12.1,3.091-15.577-.907-2.26,2.754-4.374,5.634-6.406,8.067-6.191,7.412-12.043,15-17.635,22.767C71.244,64.9,61.287,81.949,50.878,98.683,40.6,115.2,30.414,131.8,21.1,148.73,13.214,163.077,2.7,179.954,0,195.682c4.1-33.356,19.646-65.418,38.161-94.824C56.526,71.693,77.6,39.842,106.037,16.826,103.143,12.57,103.063,6.5,108.56,2.463Z" transform="translate(117.842 225.79)"/><path class="b" d="M2.068.033C8.684,1.327,19.494,16.293,24.947,22A213.572,213.572,0,0,1,42.85,43.56,364.751,364.751,0,0,1,74.526,95.225a480.219,480.219,0,0,1,35.244,91.72,378.361,378.361,0,0,1,10.694,60.161c.382,3.809,4.375,33.177-1.379,33.969-5.176.713-3.577-22.3-3.827-25.43-2.822-35.315-11.278-69.676-23.039-102.963-2.562-7.251-4.942-16.132-9.039-22.658-2.95-4.7-.021-3.061-5.206-4.84-4.452-1.528-9.524-1.155-14.083-3.026-9.9-4.061-17.834-11.946-24.785-19.877C25.6,86.869,14.891,70.195,9.311,50.445A249.576,249.576,0,0,1,1.793,17.192C1.384,14.274-2.193-.8,2.068.033Z" transform="translate(0 146.869)"/><path class="d" d="M15.2,11.543C40.12,45.182,60.6,82.134,73.82,119.56c8.014,22.676,13.617,45.945,19.18,69.046,8.619,35.77,16.772,71.533,19.091,107.941,2.333,36.616,6.947,78.85-8.457,114.11,7.694-35.805.369-73.917-.928-109.944a509.916,509.916,0,0,0-4.772-51.328c-2.286-16.586-6.022-33.093-9.5-49.55q-2.542-12.021-5.286-24.014c-.541-2.387-.769-9.467-2.714-11.1s-11.943-2.309-15.078-3.514a84.451,84.451,0,0,1-17.5-9.5,118.926,118.926,0,0,1-25.758-25.079C6.087,105.832-.312,80.458.012,56.377.074,51.7,9.734,1.355,5.854.662Q6.2.342,6.517,0,10.923,5.742,15.2,11.543Z" transform="translate(12.973)"/><path class="d" d="M178.218,4.2c.384-.555,2.887-4.412,1.627-4.165,2.566-.5-3.529,4.254,2.864,1.336-3.035,2.867-1.284,6.591-1.243,10.449A93.575,93.575,0,0,1,179.3,30.43a127.6,127.6,0,0,1-8.673,28.123c-8.786,19.64-23.706,38.547-41.418,50.826-8.744,6.063-17.313,8.127-27.286,10.918-6.3,1.763-6.8,5.022-10.142,11.134-6.961,12.731-13.8,25.416-19.937,38.577-7.33,15.715-14.446,31.448-21.159,47.44C28.076,271.315,9.671,327.122,0,384.878c-.237-34.035,7.637-69.089,17.568-101.53,7.235-23.636,16.653-46.42,26.7-68.974,2.434-5.464,6.123-12.492,7.157-18.525.724-4.227-1.489-8.291-2.5-12.744-3.95-17.338-3.667-36.763-.2-54.194,3.824-19.221,14.885-28.142,33.594-30.865,6.843-1,15.54-.631,21.814-3.548,6.836-3.177,9.656-13.62,13.543-20.324a276.4,276.4,0,0,1,37.089-50.45,120.311,120.311,0,0,1,12.685-11.67C170.29,9.788,176.284,7,178.218,4.2Z" transform="translate(118.923 49.568)"/><path class="c" d="M.849,6.194A5.406,5.406,0,0,1,6.2,0H72.6a5.406,5.406,0,0,1,5.348,6.194l-5.132,34.8A21.622,21.622,0,0,1,51.421,59.461H27.372A21.622,21.622,0,0,1,5.981,40.994Z" transform="translate(81.148 397.688)"/></g></svg>