<svg xmlns="http://www.w3.org/2000/svg" width="158.414" height="181.474" viewBox="0 0 158.414 181.474"><defs><style>.a,.d{fill:#fff;}.b{fill:#dde3e9;}.c{fill:#c5cfd6;}.d{stroke:#f2f2f2;stroke-width:3px;}.e{fill:#afb9c5;}</style></defs><g transform="translate(1.649)"><g transform="translate(22.933 0)"><rect class="a" width="110.368" height="45.035" rx="4" transform="translate(0)"/><g transform="translate(32.99 13.424)"><rect class="b" width="60.893" height="6.343" rx="3"/><rect class="b" width="40.595" height="6.343" rx="3" transform="translate(0 11.35)"/></g><path class="c" d="M20.3,9.832a9.994,9.994,0,0,1-10.149,9.832A9.994,9.994,0,0,1,0,9.832,9.994,9.994,0,0,1,10.149,0,9.994,9.994,0,0,1,20.3,9.832Z" transform="translate(7.612 12.686)"/></g><g transform="translate(22.933 52.012)"><rect class="a" width="110.368" height="35.521" rx="4" transform="translate(0 0)"/><g transform="translate(32.99 10.512)"><rect class="b" width="60.893" height="5.074" rx="2.537"/><rect class="b" width="40.595" height="5.074" rx="2.537" transform="translate(0 8.828)"/></g><circle class="c" cx="10.149" cy="10.149" r="10.149" transform="translate(7.612 6.977)"/></g><g transform="matrix(0.998, -0.07, 0.07, 0.998, 43.264, 100.945)"><rect class="d" width="109.733" height="34.886" rx="4"/><g transform="translate(32.749 10.448)"><rect class="b" width="60.893" height="5.074" rx="2.537"/><rect class="b" width="40.595" height="5.074" rx="2.537" transform="translate(0 8.828)"/></g><circle class="e" cx="10.044" cy="10.044" r="10.044" transform="translate(7.365 7.365)"/></g><g transform="matrix(0.995, 0.105, -0.105, 0.995, 3.58, 134.291)"><rect class="d" width="109.733" height="34.252" rx="4"/><g transform="translate(32.749 10.301)"><rect class="b" width="60.893" height="5.074" rx="2.537"/><rect class="b" width="40.595" height="5.074" rx="2.537" transform="translate(0 8.828)"/></g><circle class="c" cx="10.044" cy="10.044" r="10.044" transform="translate(7.365 7.365)"/></g></g></svg>