<svg xmlns="http://www.w3.org/2000/svg" width="1104.002" height="635.755" viewBox="0 0 1104.002 635.755"><defs><style>.a{fill:#f2f2f2;}.b{fill:rgba(0,0,0,0.1);}.c{fill:#afb9c5;}.d{fill:#c5cfd6;}.e{opacity:0.346;}.f{fill:#dde3e9;}.g{opacity:0.7;}.h{fill:none;stroke:#cbcbcb;stroke-width:8px;}.i{fill:#3848ed;}.j{fill:#c7cae6;}.k{fill:#808bf7;}.l{fill:#fff;}</style></defs><g transform="translate(0 297.496)"><g transform="translate(976.841 56.521)"><path class="a" d="M70.271,35.38A35.136,35.136,0,1,1,35.136,0,35.258,35.258,0,0,1,70.271,35.38Z" transform="translate(0 0)"/><path class="b" d="M3.879,2.157A2.057,2.057,0,0,1,1.94,4.314,2.057,2.057,0,0,1,0,2.157,2.057,2.057,0,0,1,1.94,0a2.057,2.057,0,0,1,1.94,2.157Z" transform="translate(33.196 5.178)"/><path class="b" d="M3.879,2.157A2.057,2.057,0,0,1,1.94,4.314,2.057,2.057,0,0,1,0,2.157,2.057,2.057,0,0,1,1.94,0a2.057,2.057,0,0,1,1.94,2.157Z" transform="translate(5.173 33.223)"/><path class="b" d="M3.449,2.157A1.978,1.978,0,0,1,1.725,4.314,1.978,1.978,0,0,1,0,2.157,1.978,1.978,0,0,1,1.725,0,1.978,1.978,0,0,1,3.449,2.157Z" transform="translate(61.218 33.223)"/><path class="b" d="M3.879,2.157A2.057,2.057,0,0,1,1.94,4.314,2.057,2.057,0,0,1,0,2.157,2.057,2.057,0,0,1,1.94,0a2.057,2.057,0,0,1,1.94,2.157Z" transform="translate(33.196 60.836)"/><path class="c" d="M52.33,17l1.33,23.285H51Z" transform="translate(-17.217 -5.726)"/><path class="c" d="M1.33,0l1.324,15.96H-.006Z" transform="translate(47.818 46.058) rotate(135)"/><path class="d" d="M5.174,2.589A2.587,2.587,0,1,1,2.587,0,2.588,2.588,0,0,1,5.174,2.589Z" transform="translate(32.765 32.791)"/></g><g class="e" transform="translate(8.641 94.765)"><path class="a" d="M.137,68.933c4.584,51.261,250.5,150.2,296.151,101.644s1.763-139.671-93.908-163S-4.446,17.674.137,68.933Z" transform="translate(314.427 183.619) rotate(180)"/><path class="f" d="M244.1,173.43c4.105-43.547,224.382-127.6,265.279-86.35s30.543,128-55.156,147.827S239.991,216.977,244.1,173.43Z" transform="translate(530.859 -353.439)"/></g><g transform="translate(5.982)"><g transform="translate(0 101.508)"><path class="a" d="M56.5,14.969c0,8.267-12.649,14.969-28.252,14.969S0,23.236,0,14.969,12.649,0,28.252,0,56.5,6.7,56.5,14.969Z" transform="translate(4.653 7.984)"/><path class="f" d="M65.81,33.264A33.086,33.086,0,0,0,32.905,0,33.086,33.086,0,0,0,0,33.264"/></g><rect class="f" width="2.561" height="105.715" transform="translate(31.214)"/></g><g class="g" transform="translate(65.81)"><g transform="translate(0 75.114)"><path class="a" d="M42.235,12.08c0,6.672-9.455,12.08-21.118,12.08S0,18.752,0,12.08,9.455,0,21.118,0,42.235,5.409,42.235,12.08Z" transform="translate(3.478 6.443)"/><path class="f" d="M49.191,26.845C49.191,12.019,38.18,0,24.6,0S0,12.019,0,26.845"/></g><rect class="f" width="2.561" height="90.338" transform="translate(23.552)"/></g><g transform="translate(990.236 -297.508)"><path class="h" d="M60,29.233,72.343,16.872a5.315,5.315,0,0,1,7.521,0h0l32.862,32.9a10.649,10.649,0,0,1,3.114,7.526V275.234" transform="translate(-20.625 -6.456)"/><rect class="c" width="38.411" height="3.844" rx="1.922" transform="translate(75.356 268.266)"/><g transform="translate(31.287 0) rotate(45)"><path class="d" d="M21.946.009h0A21.967,21.967,0,0,1,43.9,21.963l.007,18.621L.016,40.566.009,21.946A21.924,21.924,0,0,1,21.946.009Z"/><path class="a" d="M43.893,4.34c0,2.387-9.824,4.318-21.944,4.313S0,6.709,0,4.322,9.825,0,21.946.009,43.892,1.953,43.893,4.34Z" transform="translate(0.133 35.619)"/></g></g><g transform="translate(0 179.905)"><g transform="translate(15.277)"><path class="f" d="M17.119,1.106a11.236,11.236,0,0,1,5.707.6c3.766,1.6,4.836,6.052,4.784,9.671-.056,3.895-.882,8.149,2.077,11.287,1.36,1.443,3.052,2.547,4.388,4.017a18.987,18.987,0,0,1,3.376,5.3c1.523,3.546,2.27,7.711.878,11.427-1.229,3.274-4.309,6.228-3.643,9.949.7,3.882,4.606,6.85,7.051,9.742,2.767,3.273,5.313,7.455,5.733,11.746a15.425,15.425,0,0,1-4.132,11.381c-5.485,6.215-13.729,9.257-22.043,9.238-3.529-.008-7.526-.168-10.571-2.066a5.829,5.829,0,0,1-2-2.16A7.04,7.04,0,0,0,6.794,89.3a11.475,11.475,0,0,1-3.68-4.918C.1,76.909,2.509,67.664,6.731,61.028c1-1.572,1.82-3.085,1.333-4.959a19.142,19.142,0,0,0-2.856-5.4,43.461,43.461,0,0,1-3.185-5.044,11.454,11.454,0,0,1-.985-5.914A20.127,20.127,0,0,1,5.366,29.156c2.276-3,4.949-5.866,4.955-9.794.006-4.165-2.775-7.866-1.59-12.1a8.065,8.065,0,0,1,3.064-4.6A12.477,12.477,0,0,1,17.119,1.106Z" transform="translate(-0.981 -0.975)"/><path class="d" d="M22.92,10.78a.96.96,0,0,1,1.22-.748c.687.192.673.833.656,1.41a18.915,18.915,0,0,0,.621,5.174c.878,3.548,2.5,6.816,3.785,10.223a18.6,18.6,0,0,1,1.134,10.517c-.71,3.4-1.826,6.706-2.552,10.106-.64,3-1.322,6.158-.347,9.148.939,2.878,3.014,5.222,4.509,7.823a36.906,36.906,0,0,1,4.65,17.5,32.757,32.757,0,0,1-.653,8.534c-.381,1.612-.892,3.79-2.273,4.9a1.576,1.576,0,0,1-2.26-.069c-.5-.713-.064-1.816.1-2.576a39.081,39.081,0,0,0,.665-9.989,36.093,36.093,0,0,0-1.559-9.553,32.34,32.34,0,0,0-4.068-7.948c-1.72-2.556-3.508-5.117-4.219-8.145-.722-3.075-.136-6.205.649-9.222.832-3.191,1.916-6.29,3.04-9.4a16.5,16.5,0,0,0,.878-9.054C25.7,23.165,22.5,17.294,22.92,10.78Z" transform="translate(-8.027 -3.993)"/></g><g transform="translate(21.264 6.671)"><path class="f" d="M60.417,1.053a14.284,14.284,0,0,1,6.377,3.683c3.572,3.852,2.476,9.674.5,13.928-2.122,4.577-5.338,9.178-3.525,14.43.832,2.414,2.235,4.6,3.025,7.034a24.548,24.548,0,0,1,1.163,8.021c-.086,4.983-1.408,10.3-5.006,13.972-3.164,3.231-8.343,5.12-9.526,9.869-1.235,4.953,1.784,10.5,3.125,15.192,1.517,5.311,2.3,11.584.521,16.877-1.7,5.072-6,9.06-10.856,11.308-9.714,4.491-20.993,3.8-30.733-.55-4.136-1.847-8.738-4.116-11.308-7.945a7.5,7.5,0,0,1-1.2-3.594,9.046,9.046,0,0,0-1.249-3.3A14.805,14.805,0,0,1,.01,92.247C.418,81.839,8.129,72.16,16.586,66.511c2-1.338,3.764-2.7,4.184-5.17.439-2.578-.092-5.313-.5-7.876A55.823,55.823,0,0,1,19.2,45.84a14.942,14.942,0,0,1,1.967-7.506,26.27,26.27,0,0,1,10.65-10.227c4.253-2.36,8.9-4.361,10.984-9,2.206-4.92.9-10.747,4.525-15.136A10.468,10.468,0,0,1,53.35.124C55.668-.277,58.2.38,60.417,1.053Z" transform="translate(0.011 -0.002)"/><path class="d" d="M66.335,13.536a1.222,1.222,0,0,1,1.818-.247c.7.588.351,1.341.03,2.009A24.777,24.777,0,0,0,66.2,21.751c-.832,4.661-.64,9.383-.923,14.1A24.387,24.387,0,0,1,61.1,48.9c-2.608,3.652-5.644,6.984-8.274,10.629-2.317,3.214-4.769,6.6-5.193,10.652-.408,3.9.792,7.765,1.179,11.629a48.358,48.358,0,0,1-3.723,23.167,42.779,42.779,0,0,1-5.23,9.764c-1.289,1.709-3.027,4.02-5.223,4.613a2.005,2.005,0,0,1-2.607-1.268c-.215-1.108.878-2.183,1.463-3a51.05,51.05,0,0,0,6-11.481,47.293,47.293,0,0,0,3.176-12.132,42.316,42.316,0,0,0-.595-11.548c-.674-3.929-1.424-7.9-.671-11.859.768-4.021,3.089-7.42,5.585-10.581,2.64-3.344,5.532-6.444,8.471-9.532A21.532,21.532,0,0,0,61.226,37.7C63.1,29.662,62.439,21.032,66.335,13.536Z" transform="translate(-10.721 -4.349)"/></g><g transform="translate(0 37.271)"><path class="d" d="M8.846,0a12.647,12.647,0,0,1,9.736,5.028c2.778,3.453,3.34,7.67,4.468,11.785a10.522,10.522,0,0,0,3.219,5.472c1.536,1.265,3.493,1.518,5.335,2.137a12.456,12.456,0,0,1,7.831,7.844c1.433,4.43-.085,8.9.177,13.387.24,4.123,4.3,6.7,7.57,8.672,3.223,1.949,6.125,3.773,7.1,7.57,1.029,4.027,1.374,8.521-.051,12.5-2.373,6.624-9.32,9.54-16.031,9.995-6.091.41-13.75-.234-18.324-4.659a13.03,13.03,0,0,1-3.605-10.036,30.573,30.573,0,0,1,1.115-6.777,30.586,30.586,0,0,0,1.137-4.753c.425-4.314-3.559-5.143-6.95-6.327a16.543,16.543,0,0,1-9.424-8.309,15.846,15.846,0,0,1-1.6-11.889A13.883,13.883,0,0,1,3.7,26.082c.648-.7,1.561-1.292,2.145-2.032a2.743,2.743,0,0,0,.241-2.4C5.213,17.916,2.5,14.821,1.537,11.089c-.874-3.368-.358-7.56,2.719-9.733A8.031,8.031,0,0,1,8.846,0Z" transform="translate(-0.001 0.001)"/><path class="c" d="M20.22,14.427c4.153,4.427,5.281,10.434,5.613,16.256.186,3.268-.008,6.708.951,9.875.82,2.71,2.741,4.782,4.725,6.74,3.989,3.942,8.438,7.949,9.6,13.654.684,3.348.223,6.806,1.168,10.117A27.836,27.836,0,0,0,46.5,79.576c1.483,2.046,3.415,3.614,5.036,5.521.495.582,1.2,1.44,1,2.262-.239.961-1.464,1.267-2.333,1.116-2.027-.352-3.734-2.29-5.057-3.7a31.851,31.851,0,0,1-4.925-6.758,28.429,28.429,0,0,1-3.194-8.783c-.529-3.212-.263-6.559-1.479-9.641-2.036-5.186-6.978-8.246-10.556-12.289C20.532,42.271,21.2,36,21.653,29.807c.25-3.4.5-7.249-1.216-10.358-.656-1.187-2.119-2.293-2.4-3.642C17.774,14.571,19.184,13.322,20.22,14.427Z" transform="translate(-6.036 -4.685)"/></g><path class="i" d="M28,181c0,25.32,4.129,38.586,25.927,38.586S79.854,206.32,79.854,181Z" transform="translate(-9.387 -61.232)"/></g><g transform="translate(216.115 167.28)"><g transform="translate(15.289)"><rect class="c" width="24.967" height="5.126" rx="2" transform="translate(13.937 96.148)"/><path class="f" d="M23.289,100.273A111.641,111.641,0,0,0,28.087,71h3.036a111.641,111.641,0,0,0,4.8,29.273h4.321a10.312,10.312,0,0,1,0,20.624H18.3a10.312,10.312,0,0,1,0-20.624Z" transform="translate(-2.682 -23.765)"/><path class="d" d="M3.073,1.117Q14.5,0,25.927,0T48.782,1.117l3.073,52.857q-12.962,1.242-25.927,1.242T0,53.977Z"/></g><path class="a" d="M13.96,153H83.1v69.19H69.134V167.636H13.96v54.553H0V153Z" transform="translate(0 -51.211)"/></g><g transform="translate(990.223 -212.5)"><g transform="translate(8.671)"><path class="j" d="M3.256.138C9.128,14.1,19.109,23.8,24.4,38.324a82.465,82.465,0,0,1,4.521,27.561c.043,5.208-.047,10.42-.072,15.628-.024,5.079-.161,10.123-.592,15.172-.433,5.073-.917,10.086-1.131,15.19-.166,3.977-.243,8.6-1.59,12.231-1.071,2.883-3.794,3.308-4.516-.192a28,28,0,0,1-.307-6.116c.057-2.563.206-5.126.282-7.688.305-10.291-.09-20.583.117-30.878.2-10.059,1.494-20.1.064-30.1C19.988,40.883,16.99,33.8,13.544,27.006,10.228,20.471,6.62,14.1,4.38,6.663A35.844,35.844,0,0,1,3,.02Q3.156-.053,3.256.138Z" transform="translate(-1.006 0)"/><path class="k" d="M.647,41.411a11.2,11.2,0,0,1,2.6,3.282c.979,1.508,2.126,2.869,3.1,4.38,2.038,3.144,3.83,6.483,5.687,9.756a63.942,63.942,0,0,1,7.528,20.022c1.374,7.449,1.745,15.138,2.321,22.7.611,8.013,1.227,16.081,1.308,24.128a86.111,86.111,0,0,1-.2,11.008c-.269,2.228-1.274,4.126-3.538,4.108-4.81-.038-7.069-5.37-8.012-9.744a82.276,82.276,0,0,1-1.446-19.865c.266-7.941,1.643-15.761,2.241-23.672.631-8.374.275-16.6-2.6-24.484C8.18,59.043,6.5,55.154,4.978,51.2a38.266,38.266,0,0,0-2.044-4.985A47.406,47.406,0,0,1,0,41Z" transform="translate(0 -13.723)"/><path class="j" d="M78.523,16.345,78.965,16a44.041,44.041,0,0,1-1.779,4.884,39.883,39.883,0,0,0-1.152,4.748c-.832,3.78-1.8,7.474-2.585,11.285-1.557,7.542-1.264,15.667-.239,24.036.966,7.9,2.493,15.8,3.221,23.7a108.9,108.9,0,0,1,.287,19.566c-.391,4.247-1.673,9.318-5.166,8.889-1.645-.2-2.5-2.183-2.848-4.421-.555-3.592-.672-7.368-.888-10.939-.483-7.972-.576-15.918-.675-23.808-.09-7.444-.339-15.035.158-22.29a68.363,68.363,0,0,1,4.122-19.132c1.129-3.063,2.2-6.2,3.474-9.127.608-1.4,1.351-2.641,1.96-4.042A8.637,8.637,0,0,1,78.523,16.345Z" transform="translate(-22.461 -5.355)"/><path class="j" d="M3.139,76.2c.636-1.069,2.036,2.456,2.25,2.9q-.135-.331-.272-.661a29.346,29.346,0,0,1,3.137,6.7c.711,2.385,1.321,4.818,1.988,7.22,1.251,4.507,2.865,8.885,4,13.433a43.745,43.745,0,0,1,1.116,13.371,114.312,114.312,0,0,0-.124,14.361,42.192,42.192,0,0,0,1.4,6.581c.5,2.189.906,4.412,1.5,6.576.138-.282.155.661.155.732a4.547,4.547,0,0,1-.256,1.507,4.056,4.056,0,0,1-2.554,2.8c-2.3.657-4.431-1.435-5.172-3.644a60.489,60.489,0,0,1-2.155-10,47.193,47.193,0,0,1-.437-9.226c.272-6.106,1.376-12.133,1.675-18.238.33-6.644-.988-12.89-2.09-19.361a56.574,56.574,0,0,0-2.07-9.172A25.8,25.8,0,0,0,3.695,78.7C3.371,78.07,2.714,76.943,3.139,76.2Z" transform="translate(-1.006 -25.438)"/><path class="i" d="M27.816,48.749c-.264,7.614-.718,15.17-1.732,22.7-1.035,7.688-2.224,15.35-3.22,23.045-.97,7.49-1.985,15.105-1.85,22.7.1,5.595-.827,15.056,5.381,17.82,6.287,2.8,7.635-9.143,8.05-13.084A147.731,147.731,0,0,0,34.6,99.123c-.394-7.8-1.052-15.569-1.868-23.342-.908-8.633-1.618-17.308-2.188-25.969-.282-4.284-.351-8.56-.274-12.845.074-4.043-.079-8.128-1.519-11.967l-.225.163" transform="translate(-7.041 -8.368)"/><path class="k" d="M76.031,94.963c-1.131,1.648-2.271,3.281-3.339,5.028a26.562,26.562,0,0,0-4.161,11.067c-1.088,9.35-.215,19.448,0,29.084.043,1.969-.205,3.879.57,5.753.7,1.7,2.018,2.994,3.271,2.988,2.682-.015,2.273-6.59,2.278-9.482.008-5.072-.56-10.195-.512-15.261a106.046,106.046,0,0,1,1.081-14.821,85.449,85.449,0,0,1,3.237-13.784c.2-.6,1.615-5.237.276-4.438" transform="translate(-22.795 -30.46)"/><path class="i" d="M57.481,22c-1.764,0-1.753,8.8-1.806,9.931-.192,4.079-.147,8.158-.268,12.237A221.8,221.8,0,0,1,53.48,70.85C52.76,75.588,51.926,80.3,51.029,85s-2.107,9.424-2.7,14.2c-.568,4.59-.247,9.27-.169,13.883a121.623,121.623,0,0,0,.825,13.89c.15,1.135.326,2.267.512,3.4a26.676,26.676,0,0,0,.33,3c.425,1.431,2.246,1.9,3.473,1.676,3.319-.607,5.442-4.777,6.573-7.824a73.324,73.324,0,0,0,2.974-12.212,106.816,106.816,0,0,0,1.6-14.091A237.248,237.248,0,0,0,63.626,72.1c-.384-5.329-.825-10.636-1.5-15.929-.673-5.273-1.536-10.522-2.1-15.811-.409-3.844-.812-7.688-1.076-11.549C58.883,27.894,58.829,22,57.481,22" transform="translate(-16.092 -7.364)"/><path class="k" d="M49.909,78.6c-.287-9.238-4-49.817-4.842-60.988C44.856,14.812,42.826,3.17,42.56,0c-.715.9-.654,14.842-.646,18.046.008,3.17-.384,6.287-.586,9.44C41.122,30.7,36.37,72.25,35.753,75.342,34.527,81.492,33.7,87.8,33.072,94.09c-.617,6.128-1.576,12.594-.75,18.755a18.845,18.845,0,0,0,.979,4.116c.528,1.41.89,2.71,1.314,4.182.682,2.371,1.917,4.455,3.813,5.434,3.888,2.009,5.976-2.538,7.035-6.5A106.006,106.006,0,0,0,48.747,100.7c.563-7.345,1.394-14.705,1.163-22.1" transform="translate(-10.729 0)"/></g><g transform="translate(0 105.877)"><rect class="l" width="60.177" height="60.225" rx="2" transform="translate(6.898)"/><rect class="d" width="6.402" height="74.321" rx="2" transform="translate(0 6.903)"/><rect class="d" width="6.402" height="74.321" rx="2" transform="translate(33.196 6.903)"/><rect class="d" width="6.402" height="74.321" rx="2" transform="translate(67.254 6.903)"/></g></g></g></svg>