<svg xmlns="http://www.w3.org/2000/svg" width="1321.154" height="515.687" viewBox="0 0 1321.154 515.687"><defs><style>.a{fill:#89c5cc;}.b{fill:#dde3e9;}.c{fill:#c1dee2;}.d{fill:#69a1ac;}.e{opacity:0.6;}.f{fill:#f2f2f2;}.g{fill:#fff;}.h{fill:#c5cfd6;}.i{fill:#afb9c5;}</style></defs><g transform="translate(0)"><path class="a" d="M92.236,1.2A6.69,6.69,0,0,0,90.081.625,34.937,34.937,0,0,0,83.347,0,124.252,124.252,0,0,0,62.526,1.871c-4.334.749-9.573,3.268-13.885,1.9C41.13,1.387,33.539,1.5,26.413,4.907,19.9,8.02,14.952,13.93,12.066,20.317a39.165,39.165,0,0,0-2.7,6.9c-.214.489-.419.982-.6,1.481-.526,1.419-1,2.863-1.435,4.31-.187.617-.658,1.98-.1,2.243a41.018,41.018,0,0,0-2.344,5.1c-1.923,5.1-4.019,10.7-4.693,16.1a25.185,25.185,0,0,0-.027,6.019c.115.991.067,2.984.739,3.738,1.426,1.6,2.158-.639,2-1.706C1.678,56.378,4.049,48.747,6.858,41.1A48.07,48.07,0,0,1,15,27.558a34.2,34.2,0,0,1,9.318-8.118A145.692,145.692,0,0,1,38.51,12.4c3.16-1.433,6.324-2.828,9.573-4.062a9.541,9.541,0,0,1,2.66-.982c1.694-.006,4.094,1.244,5.73,1.709,5.381,1.53,10.831,3.489,16.393,4.27a21.14,21.14,0,0,0,10.246-1.251,9.59,9.59,0,0,0,1.613-.879,23.4,23.4,0,0,0,6.86-3.882A27.36,27.36,0,0,0,94.8,3.864a1.814,1.814,0,0,0,.424-1.141.687.687,0,0,0,.4-.407c.243-1.16-1.97-1.182-3.387-1.113" transform="translate(1215.687 128.725)"/><path class="b" d="M10.767,0c-1.752,0-3.5.035-5.249.126C4.183.2,2.144-.08,1.016.747-.157,1.607-.077,3.366.107,4.609c.969,6.57,3.332,12.4,8.278,17.052C16,28.828,24.728,32.47,35.057,34.092c7.256,1.139,13.954-.443,19.3-5.577A79.868,79.868,0,0,1,62.7,51.75a55.4,55.4,0,0,1,.828,11.942c-.083,2.591-.227,5.176-.506,7.754-.121,1.121-.7,2.817-.254,3.875a1.781,1.781,0,0,0,3.045.3c.652-.882.532-2.615.666-3.66.222-1.735.427-3.471.574-5.214.239-2.821.415-5.65.4-8.482a62.956,62.956,0,0,0-3.4-18.789C60.331,27.9,54.279,17.6,44.866,9.519c-5.787-4.968-12.411-6.98-19.926-8.06A100.371,100.371,0,0,0,10.767,0" transform="translate(65.059 233.69) rotate(-39)"/><path class="c" d="M73.5,163.145c-1.421-11.316-2.925-22.567-5.679-33.664-1.623-6.539-3.7-12.94-5.592-19.4q.254,1.216.449,2.445c-.657-1.928-2.03-3.772-2.82-5.694-.881-2.143-1.589-4.368-2.262-6.581-1.314-4.318-2.553-8.643-4.031-12.912-1.648-4.759-3.545-9.439-5.312-14.15A114.815,114.815,0,0,0,43.393,61.17c-1.064-2.081-2.019-4.316-3.064-6.437-.35-.71-3.351-8.64-3.328-8.64.5,0,2.357,3.525,2.666,4.043.9,1.512,1.667,3.086,2.44,4.663a20.765,20.765,0,0,1,1.7-5.427c.257-.531,2.062-4.45,2.649-4.45.294,0-2.419,7.4-2.762,8.05a13.4,13.4,0,0,0-.982,1.758c-.294.907-.142.68.1,1.5a42.963,42.963,0,0,0,2.045,4.407,31.333,31.333,0,0,0,1.99,4.625c2.1,4.1,3.585,9.092,5.181,13.509a28.922,28.922,0,0,1,1.758-6.305c.195-.485,1.745-4.985,2.192-4.985.5,0-1.422,7.208-1.683,7.83-.486,1.156-1.249,2.276-1.653,3.453-.443,1.292.335,2.455.831,3.776C55.3,87.4,56.9,92.311,58.358,97.287c8.487-3.717,10.174-14.656,10.728-22.724a56.363,56.363,0,0,0-1.912-17.375A116.116,116.116,0,0,0,58.762,35.4a77.953,77.953,0,0,0-15.8-21.816A83.359,83.359,0,0,0,31.771,4.637,23.818,23.818,0,0,0,25.64,1.476a22.206,22.206,0,0,0-3.1-.756c-.8-.14-2.421-.878-3.081-.69C14.072,1.522,10.019,4,6.877,8.615a40.351,40.351,0,0,0-5.847,14.7A46.8,46.8,0,0,0,.593,40.508a106.248,106.248,0,0,0,3.332,12.92c4.6,15.116,12.655,31.321,27.113,39.613a44,44,0,0,0,15.2,5.085,37.553,37.553,0,0,0,3.782.454c.857.049,3.674-.521,4.294-.151.85.507,1.338,3.38,1.709,4.422,2.815,7.919,5.333,15.927,7.617,24.008,2.43,8.6,4.361,17.277,5.969,26.054.684,3.733,1.35,7.46,1.917,11.214.132.873,0,3.62.848,4.391A1.028,1.028,0,0,0,74,168.209c.558-1.038-.351-3.9-.5-5.063" transform="matrix(0.799, -0.602, 0.602, 0.799, 0, 128.075)"/><path class="d" d="M77.578.6A42.464,42.464,0,0,0,67.967.03,59.715,59.715,0,0,0,23.9,20.937c-9.147,10.828-11.662,24.289-13.47,37.9-.179,1.351-.256,2.694-.357,4.048-.022.291-.054.55-.089.794a1.748,1.748,0,0,0-.663,2.19A90.464,90.464,0,0,0,5.3,76.428C1.951,87.093-1.451,97.961.645,109.175A156.687,156.687,0,0,1,3.4,90.623q.106-.522.227-1.039l.024-.109a40.572,40.572,0,0,1,1.692-5.437l.022-.058c.091-.234.188-.466.283-.7.2-.481.4-.961.615-1.439q.109-.244.21-.492c1-2.459,1.427-5.231,2.326-7.776q.323-.868.675-1.729l.042-.1c.637-1.543,1.34-3.067,2.084-4.576a5.634,5.634,0,0,0,.969-1.742,10.894,10.894,0,0,0,.8-1.554q.657-1.271,1.316-2.541l-.04.015q.662-1.218,1.323-2.427l.292-.532.473-.846c1.473-2.635,3.034-5.218,4.656-7.769.579-.91,1.961-2.215,2.227-3.238a1.094,1.094,0,0,0,.018-.11A58.007,58.007,0,0,1,36.061,33.316c-.587.635-1.835,2.789-2.165,3.215-1.01,1.306-2.106,2.521-3.207,3.752a79.866,79.866,0,0,0-5.6,6.883A130.792,130.792,0,0,0,16.71,60.912c-.024.028-.051.054-.074.082-1.282,1.58-2.088,3.967-3.011,5.775,3.651-1.691,7.688-2.793,11.435-4.294a93.958,93.958,0,0,0,10.881-5.121,121.422,121.422,0,0,0,13.91-8.863,55.11,55.11,0,0,0,13.04-11.97c4.432-5.354,8.494-10.754,11.006-17.255a51.814,51.814,0,0,0,2.78-9.9c.025-.147.057-.306.092-.472a32.413,32.413,0,0,0,1.557-3.571c.7-1.931,2.358-4.055-.749-4.733" transform="translate(1219.373 162.363)"/><path class="a" d="M48.393,73.986c.2,0,.418-.153.65-.455.535-.7.106-2.96-.125-4.177-.041-.217-.076-.4-.1-.53a26.163,26.163,0,0,0-.692-3.165,91.294,91.294,0,0,0-3.364-9.292c-.461-1.132-.944-2.3-1.435-3.488-.091-.22-.17-.382-.232-.513-.225-.468-.225-.468.233-.968l.081-.089a6.349,6.349,0,0,1,.835-.721,7.777,7.777,0,0,0,.7-.583,15.728,15.728,0,0,0,3.837-6.358,15.956,15.956,0,0,0,.694-6.954,27.337,27.337,0,0,0-1.784-6.818,54.719,54.719,0,0,0-5.55-10.725,49.456,49.456,0,0,0-7.879-9.26A42.9,42.9,0,0,0,21.183,2.24,27.707,27.707,0,0,0,12.819.282C12.417.254,12,.24,11.582.24A22.7,22.7,0,0,0,8.8.422C8.543.454,8.27.508,8,.559A8.19,8.19,0,0,1,6.878.727L6.7.737C6.574.744,6.476.75,6.391.75c-.346,0-.483-.1-.919-.529A.632.632,0,0,0,5.056,0a.376.376,0,0,0-.338.288A1.032,1.032,0,0,0,5,1.367,7.718,7.718,0,0,0,1.462,4.492,11.128,11.128,0,0,0,.079,8.942a32.121,32.121,0,0,0,.762,9.552,43.786,43.786,0,0,0,3.093,9.534,50.145,50.145,0,0,0,4.992,8.529,72.1,72.1,0,0,0,14.111,14.3,20.614,20.614,0,0,0,9.479,4.332,11.047,11.047,0,0,0,1.806.15,12.107,12.107,0,0,0,3.79-.636c.095-.031.216-.066.357-.107.577-.167,1.45-.419,1.666-.779.193-.324.014-.6-.212-.958-.067-.1-.136-.212-.2-.33l-.747-1.359c-.656-1.195-1.334-2.43-2.014-3.638-.107-.191-.221-.442-.341-.709a4.632,4.632,0,0,0-1.035-1.681.638.638,0,0,0-.171-.016,1.338,1.338,0,0,1-.542-.089c-.115-.073-.133-.281-.145-.418-.006-.069-.011-.124-.026-.132a5.884,5.884,0,0,0-2.052-.471c-.346-.04-.672-.078-.93-.133-.712-.152-1.551-.343-2.38-.6a26.406,26.406,0,0,1-2.5-.927c-.173-.074-.423-.218-.688-.37a4.731,4.731,0,0,0-1.4-.643A22.873,22.873,0,0,1,30.1,42.3a20.836,20.836,0,0,1,2.789.97c.11.047.29.147.5.263a4.637,4.637,0,0,0,1.461.635.238.238,0,0,0,.122-.027,54.374,54.374,0,0,0-3.719-5.3c-.693-.876-1.426-1.821-2.088-2.8-.043-.063-.148-.252-.281-.492a7.34,7.34,0,0,0-1.164-1.789c.422,0,1.339.989,1.887,1.579.159.171.3.318.383.4A25.511,25.511,0,0,1,32,37.889a48.81,48.81,0,0,1,2.989,4.053c1.324,1.978,2.488,4.042,3.567,5.986.249.448.516.906.775,1.349a26.771,26.771,0,0,1,1.929,3.754.227.227,0,0,1,.134-.057c.144,0,.213.233.279.458a2.4,2.4,0,0,0,.076.23c.35.84.692,1.662,1.029,2.48.71,1.728,1.278,3.155,1.787,4.491l.027.071c.6,1.566,1.215,3.186,1.713,4.811a27.527,27.527,0,0,1,1.026,4.664c.079.631.134,1.268.164,1.895C47.526,72.584,47.782,73.986,48.393,73.986Zm-2.9-29.461a17.082,17.082,0,0,1-2.707,4.512c.632-.935,1.175-1.793,1.663-2.623.111-.188.322-.58.526-.96.253-.473.493-.919.516-.929ZM33.432,31.376c.287,0,.594,2.569.625,3a12.517,12.517,0,0,1-.494,4.216v0a16.152,16.152,0,0,0-.128-2.024c-.18-2.016-.426-4.777-.088-5.147a.112.112,0,0,1,.085-.044Z" transform="matrix(0.53, -0.848, 0.848, 0.53, 54.166, 193.475)"/><g class="e" transform="translate(43.287 239.559)"><path class="b" d="M1277.31,153.59c18.627,68.648-433.113,113.425-821.935,82.176S-111.819,82.488,73.719,17.466,1258.684,84.942,1277.31,153.59Z" transform="translate(0 0)"/></g><g transform="translate(296.958 33.538)"><rect class="f" width="143" height="272" rx="8"/><circle class="g" cx="13.534" cy="13.534" r="13.534" transform="translate(57.746 228.276)"/><g transform="translate(57.746 14.436)"><circle class="g" cx="1.805" cy="1.805" r="1.805"/><rect class="g" width="18" height="3" rx="1" transform="translate(8.12)"/></g><g transform="translate(12.632 25.264)"><rect class="g" width="118" height="48" rx="4"/><g transform="translate(35.189 14.617)"><rect class="b" width="65" height="7" rx="3"/><rect class="b" width="44" height="7" rx="3" transform="translate(0 12.181)"/></g><circle class="h" cx="10.827" cy="10.827" r="10.827" transform="translate(8.12 13.534)"/><g transform="translate(0 55.941)"><rect class="g" width="118" height="37" rx="4"/><g transform="translate(35.189 11.369)"><rect class="b" width="65" height="5" rx="2"/><rect class="b" width="44" height="5" rx="2" transform="translate(0 9.474)"/></g><circle class="h" cx="10.827" cy="10.827" r="10.827" transform="translate(8.12 8.12)"/></g><g transform="translate(0 101.055)"><rect class="g" width="118" height="37" rx="4"/><g transform="translate(35.189 11.369)"><rect class="b" width="65" height="5" rx="2"/><rect class="b" width="44" height="5" rx="2" transform="translate(0 9.474)"/></g><circle class="i" cx="10.827" cy="10.827" r="10.827" transform="translate(8.12 8.12)"/></g><g transform="translate(0 146.169)"><rect class="g" width="118" height="37" rx="4"/><g transform="translate(35.189 11.369)"><rect class="b" width="65" height="5" rx="2"/><rect class="b" width="44" height="5" rx="2" transform="translate(0 9.474)"/></g><circle class="h" cx="10.827" cy="10.827" r="10.827" transform="translate(8.12 8.12)"/></g></g></g><g transform="translate(354.43 63.948)"><g transform="translate(0 196.696)"><path class="a" d="M7.344,0c-1.2,0-2.387.024-3.581.086-.91.048-2.3-.141-3.071.426-.8.589-.745,1.8-.62,2.647A19.2,19.2,0,0,0,5.719,14.848c5.194,4.913,11.149,7.41,18.195,8.522,4.95.781,9.519-.3,13.162-3.823a54.92,54.92,0,0,1,5.7,15.927,38.16,38.16,0,0,1,.565,8.186c-.057,1.776-.155,3.548-.345,5.315-.083.768-.474,1.931-.173,2.656a1.212,1.212,0,0,0,2.077.208,5.965,5.965,0,0,0,.454-2.509c.151-1.189.292-2.379.392-3.574.163-1.934.283-3.873.275-5.814A43.342,43.342,0,0,0,43.7,27.063,44.214,44.214,0,0,0,30.606,6.525C26.658,3.119,22.139,1.74,17.013,1A68.146,68.146,0,0,0,7.344,0" transform="translate(3.612 0)"/><path class="a" d="M29.388,0C16.487,0,7.8,10.4,3.689,21.2,2.14,25.278,1.777,29.752,1.181,34.029.989,35.4,1.06,37.493.5,38.716c-.2.443-.666.6-.444,1.207a.98.98,0,0,0,.793.663c.812.149,1.959-.734,2.655-1.083,5.771-2.894,9.563-7.369,12.656-12.845a54.663,54.663,0,0,0,5-10.642A36.785,36.785,0,0,0,22.5,8.981a26.781,26.781,0,0,0,.179-2.817,5.68,5.68,0,0,0-.748-2.227,19.011,19.011,0,0,1,13.525-.385,17.331,17.331,0,0,1,9.259,8.372,15.972,15.972,0,0,1,1.137,3.086,10.622,10.622,0,0,0,.52,2.224c.805,1.522,2.5.5,2.337-.913a18.33,18.33,0,0,0-5.6-10.67A20.165,20.165,0,0,0,29.388,0" transform="translate(0.003 31.58)"/></g><rect class="b" width="143" height="272" rx="8" transform="translate(43.312)"/><circle class="g" cx="13.534" cy="13.534" r="13.534" transform="translate(101.058 228.276)"/><g transform="translate(101.058 14.436)"><circle class="g" cx="1.805" cy="1.805" r="1.805"/><rect class="g" width="18" height="3" rx="1" transform="translate(8.12)"/></g><g transform="translate(55.944 25.264)"><rect class="g" width="118" height="48" rx="4"/><g transform="translate(8.12 14.617)"><rect class="b" width="65" height="7" rx="3"/><rect class="b" width="44" height="7" rx="3" transform="translate(0 12.181)"/></g><g transform="translate(99.25 18.046)"><circle class="b" cx="6.316" cy="6.316" r="6.316"/><circle class="f" cx="2.707" cy="2.707" r="2.707" transform="translate(3.609 3.609)"/></g><g transform="translate(0 55.941)"><rect class="g" width="118" height="37" rx="4"/><g transform="translate(35.074 11.369)"><rect class="b" width="65" height="5" rx="2" transform="translate(0.115)"/><rect class="b" width="44" height="5" rx="2" transform="translate(0 9.478)"/></g><circle class="h" cx="10.827" cy="10.827" r="10.827" transform="translate(8.12 8.12)"/></g><g transform="translate(0 101.055)"><rect class="g" width="118" height="37" rx="4"/><g transform="translate(8.12 11.369)"><rect class="b" width="65" height="5" rx="2"/><rect class="i" width="44" height="5" rx="2" transform="translate(0 9.474)"/></g><g transform="translate(99.25 12.632)"><circle class="b" cx="6.316" cy="6.316" r="6.316"/><circle class="f" cx="2.707" cy="2.707" r="2.707" transform="translate(3.609 3.609)"/></g></g><g transform="translate(0 146.169)"><rect class="g" width="118" height="37" rx="4"/><g transform="translate(35.189 11.369)"><rect class="b" width="65" height="5" rx="2"/><rect class="b" width="44" height="5" rx="2" transform="translate(0 9.474)"/></g><circle class="h" cx="10.827" cy="10.827" r="10.827" transform="translate(8.12 8.12)"/></g></g></g><g transform="translate(739.314 65.541)"><rect class="f" width="302" height="312" rx="8"/><rect class="g" width="63" height="73" rx="8" transform="translate(224.667 38.798)"/><g transform="translate(233.69 52.332)"><circle class="b" cx="14.436" cy="14.436" r="14.436" transform="translate(8.12)"/><rect class="b" width="45" height="5" rx="2" transform="translate(0 32.482)"/><rect class="b" width="30" height="5" rx="2" transform="translate(7.218 41.505)"/></g><path class="h" d="M8,0H294.263a8,8,0,0,1,8,8V24.361H0V8A8,8,0,0,1,8,0Z"/><g transform="translate(8.12 9.023)"><circle class="f" cx="3.609" cy="3.609" r="3.609"/><circle class="f" cx="3.609" cy="3.609" r="3.609" transform="translate(10.827)"/><circle class="f" cx="3.609" cy="3.609" r="3.609" transform="translate(21.655)"/></g><g transform="translate(224.667 119.101)"><rect class="g" width="63" height="175" rx="8"/><g transform="translate(16.241 16.241)"><rect class="b" width="30" height="23" rx="4"/><rect class="i" width="30" height="22" rx="4" transform="translate(0 30.677)"/><rect class="b" width="30" height="22" rx="4" transform="translate(0 60.453)"/><rect class="b" width="30" height="22" rx="4" transform="translate(0 120.003)"/><rect class="h" width="30" height="22" rx="4" transform="translate(0 90.228)"/></g></g><g transform="translate(14.436 39.7)"><rect class="g" width="203" height="42" rx="4"/><g transform="translate(8.12 12.722)"><rect class="b" width="150" height="6" rx="3"/><rect class="b" width="101" height="6" rx="3" transform="translate(0 10.602)"/></g><g transform="translate(175 14.888)"><circle class="b" cx="6.316" cy="6.316" r="6.316"/><circle class="f" cx="2.707" cy="2.707" r="2.707" transform="translate(3.609 3.609)"/></g><g transform="translate(0 49.625)"><rect class="g" width="203" height="35" rx="4"/><g transform="translate(8.12 10.557)"><rect class="b" width="150" height="5" rx="2"/><rect class="b" width="101" height="5" rx="2" transform="translate(0 8.797)"/></g><g transform="translate(175 11.278)"><circle class="b" cx="6.316" cy="6.316" r="6.316"/><circle class="f" cx="2.707" cy="2.707" r="2.707" transform="translate(3.609 3.609)"/></g></g><g transform="translate(0 92.032)"><rect class="g" width="203" height="35" rx="4"/><g transform="translate(8.12 10.557)"><rect class="b" width="150" height="5" rx="2"/><rect class="b" width="101" height="5" rx="2" transform="translate(0 8.797)"/></g><g transform="translate(175 11.278)"><circle class="b" cx="6.316" cy="6.316" r="6.316"/><circle class="i" cx="2.707" cy="2.707" r="2.707" transform="translate(3.609 3.609)"/></g></g><g transform="translate(0 219.253)"><rect class="g" width="203" height="35" rx="4"/><g transform="translate(8.12 10.557)"><rect class="b" width="150" height="5" rx="2"/><rect class="b" width="101" height="5" rx="2" transform="translate(0 8.797)"/></g><g transform="translate(175 11.278)"><circle class="b" cx="6.316" cy="6.316" r="6.316"/><circle class="f" cx="2.707" cy="2.707" r="2.707" transform="translate(3.609 3.609)"/></g></g><g transform="translate(0 176.846)"><rect class="g" width="203" height="35" rx="4"/><g transform="translate(8.12 10.557)"><rect class="b" width="150" height="5" rx="2"/><rect class="b" width="101" height="5" rx="2" transform="translate(0 8.797)"/></g><g transform="translate(175 11.278)"><circle class="b" cx="6.316" cy="6.316" r="6.316"/><circle class="f" cx="2.707" cy="2.707" r="2.707" transform="translate(3.609 3.609)"/></g></g><g transform="translate(0 134.439)"><rect class="g" width="203" height="35" rx="4"/><g transform="translate(8.12 10.557)"><rect class="b" width="150" height="5" rx="2"/><rect class="b" width="101" height="5" rx="2" transform="translate(0 8.797)"/></g><g transform="translate(175 11.278)"><circle class="b" cx="6.316" cy="6.316" r="6.316"/><circle class="f" cx="2.707" cy="2.707" r="2.707" transform="translate(3.609 3.609)"/></g></g></g></g><path class="c" d="M115.478,3.046C111.92.632,107.187,0,102.928,0,86.294,0,70.658,6.172,57.151,15.367A107.075,107.075,0,0,0,37.284,33.5a53.114,53.114,0,0,0-8.512,12.669A43.647,43.647,0,0,0,25.68,55.93a100.3,100.3,0,0,0-1.756,12.46c-.115,1.642-1.069,10.356,1.661,10.5a3.769,3.769,0,0,0,0,.6c-5.928,9.27-9.591,20.133-12.988,30.433A207.28,207.28,0,0,0,5.3,137.2,297.2,297.2,0,0,0,.864,174.184c-.151,2.661-.255,5.324-.344,7.989q-.113,3.409-.227,6.819C.21,191.539-.238,194.471.167,197c.352,2.205,2.261,1.872,2.345-.323.1-2.65.085-5.306.2-7.958q.231-5.28.485-10.558a246.855,246.855,0,0,1,14-71.619A166.99,166.99,0,0,1,29.356,79.711,187.107,187.107,0,0,1,44.287,57.9,138.229,138.229,0,0,1,61.26,39.1a130.539,130.539,0,0,1,16.7-12.278c7.424-4.713,14.833-9.313,22.874-12.931,4.18-1.881,8.439-3.564,12.651-5.369.758-.325,1.571-.64,2.3-1.016,2.432-1.254,1.631-3.143-.307-4.457" transform="translate(1188.759 218.497)"/><path class="a" d="M-62.464,0A45.93,45.93,0,0,1-43.5,3.558a84.3,84.3,0,0,1,15,8.712c6.678,4.691,11.938,10.15,15.621,17.383,2.2,4.321,3.813,10.436,2.336,15.149-1.74,5.551-6.518,10.181-12.811,9.2-3.891-.6-7.459-3.18-10.416-5.6a39.393,39.393,0,0,1-8.709-10.261c-3.815-6.318-6.057-13.461-9.3-20.064-1.538-3.134-3.024-6.29-4.866-9.268A14.95,14.95,0,0,0-59.9,4.777c-.74-.586-3.86-1.6-2.667-2.917-17.5.23-32.995,13.666-36.353,30.3-.313,1.55-.557,3.113-.816,4.673-.163.985-.1,4.617-.978,5.246-1.942,1.388-1.126-2.828-1.042-3.435q.323-2.353.686-4.7a39.128,39.128,0,0,1,11.421-22.5C-82.426,4.5-72.675,0-62.464,0" transform="translate(1295.428 307.98)"/><g transform="translate(57.426 264.857)"><path class="b" d="M8.967,32.244C25.809,60.5,45.425,87.858,57.205,118.751c-.475-3.641-.978-7.279-1.541-10.911-2.989-19.255-6.7-38.37-10.608-57.461-1.988-9.72-4.091-19.406-6.247-29.09-1.16-5.2-2.305-10.406-3.489-15.6C35.033,4.43,34.787,2.231,34.428,0,45.876,37.568,56.916,75.164,64.992,113.635q1.589,7.573,2.7,15.12c.253-1.148.5-2.3.774-3.44a222.324,222.324,0,0,1,14-40.163,121.76,121.76,0,0,1,9.768-17.728c2.353-3.486,7.9-7.629,10.048-11.2C90.548,77.755,86.309,104.693,79.531,128.1c-1.654,5.712-3.319,11.414-4.95,17.127,10.221-20.5,26.08-37.34,48.128-44.638-26.689,17.634-42.7,48.517-53.485,80.1-.036.375-.078.749-.114,1.124,3.174-6.025,7.173-11.474,12.592-15.29,11.6-8.17,24.466-5.79,35.717,1.218-8.83-5.613-24.789-.5-32.219,5.2-5.319,4.084-9.865,9.563-13.812,14.908-.946,1.281-2.236,2.776-3.6,4.371a197.063,197.063,0,0,1-9.436,36.953c.728-3.509.2-9.12.4-11.736.022-.283.04-.566.062-.849q-1.005,4.015-1.941,7.926a108.472,108.472,0,0,0,2.439-15.393q.2-3.378.407-6.755-.066-6.41-.518-12.86c-1.056-4.176-2.237-8.115-3.212-11.391a147.246,147.246,0,0,0-15.016-33.7,133.078,133.078,0,0,0-20.722-26.271c-4.313-4.256-8.827-8.31-13.278-12.42C5.364,104.234,2.488,100.58,0,98.676c18.118,9.989,36.767,20.8,49.984,36.889Q47.66,126.639,44.971,118C35.939,88.833,24.534,58.6,8.967,32.244Z" transform="translate(0 -0.003)"/><path class="h" d="M0,0C0,32.39,2.565,58.648,36.993,58.648S73.987,32.39,73.987,0" transform="translate(27.068 192.182)"/></g><g transform="translate(1027.79)"><rect class="b" width="5" height="22" rx="2" transform="translate(0 28.873)"/><rect class="b" width="5" height="36" rx="2" transform="translate(12.632 14.436)"/><rect class="b" width="5" height="44" rx="2" transform="translate(25.264 7.218)"/><rect class="b" width="5" height="36" rx="2" transform="translate(37.896 14.436)"/><rect class="h" width="5" height="51" rx="2" transform="translate(50.528)"/></g><g transform="translate(67.207 295.157) rotate(180)"><path class="f" d="M0,18.277A18.218,18.218,0,0,1,18.046,0V18.277L5.713,31.58A18.111,18.111,0,0,1,0,18.277Z" transform="translate(36.091 36.09) rotate(180)"/><path class="i" d="M12.454,0H30.677a18.058,18.058,0,0,1-4.96,12.332,18.367,18.367,0,0,1-13.264,5.713A18.627,18.627,0,0,1,0,13.134Z" transform="translate(30.977 18.045) rotate(180)"/><path class="h" d="M18.045,18.045H36.091a17.816,17.816,0,0,0-1.424-7.006,18.226,18.226,0,0,0-9.615-9.615A17.817,17.817,0,0,0,18.045,0V18.044Zm-1.8-1.8h0L9.023,0A16.56,16.56,0,0,0,0,9.023L16.239,16.24Z" transform="translate(36.091 36.09) rotate(180)"/></g><g transform="translate(1266.281 251.825)"><path class="f" d="M34.076,33.546A9.485,9.485,0,1,1,27.154,17.6V0a27.069,27.069,0,1,0,0,54.137,26.788,26.788,0,0,0,19.764-8.57Z" transform="translate(-0.085)"/><path class="i" d="M0,0V17.594a9.474,9.474,0,0,1,9.474,9.474H27.068A27.151,27.151,0,0,0,0,0Z" transform="translate(26.983)"/><path class="h" d="M3.7,0A9.6,9.6,0,0,1,0,7.57L11.064,21.655A27.441,27.441,0,0,0,21.655,0Z" transform="translate(32.396 27.068)"/></g><g transform="translate(895.382 11.532)"><path class="f" d="M26.212,25.718a7.285,7.285,0,1,1-5.324-12.229V0A20.885,20.885,0,0,0,0,20.756,20.884,20.884,0,0,0,20.888,41.5a20.638,20.638,0,0,0,15.2-6.57Z" transform="translate(0)"/><path class="i" d="M0,0V13.489a7.263,7.263,0,0,1,7.263,7.263H20.752A20.816,20.816,0,0,0,0,0Z" transform="translate(20.752)"/><path class="h" d="M2.772,0A7.2,7.2,0,0,1,0,5.678L8.3,16.241A20.58,20.58,0,0,0,16.241,0Z" transform="translate(25.264 20.752)"/></g><g transform="translate(88.189 5.412)"><path class="h" d="M1.006.986a.214.214,0,0,0-.013.029C1,1.006,1.006.97,1.006.986" transform="translate(42.31 45.92)"/><path class="h" d="M1,1a.078.078,0,0,0,0,.009C1,1,1.012.973,1,1" transform="translate(42.31 45.92)"/><path class="h" d="M1.054.832c-.013.036-.029.07-.043.106.007-.018.014-.032.022-.051-.188.469-.069.164.022-.056" transform="translate(42.316 45.935)"/><path class="h" d="M1.018.953,1,1c-.052.1.022-.051.022-.051" transform="translate(42.311 45.923)"/><path class="h" d="M1,1Z" transform="translate(42.309 45.918)"/><path class="h" d="M1,1H1" transform="translate(42.309 45.919)"/><path class="h" d="M.989,1.013c-.011.022.051-.083,0,0" transform="translate(42.31 45.92)"/><path class="h" d="M1,1H1" transform="translate(42.309 45.919)"/><rect class="b" width="85" height="56" rx="4"/><g transform="translate(7.218 16.241)"><path class="i" d="M25.264,0,0,40.6H50.528Z"/><path class="h" d="M22.106,0,0,29.775H44.212Z" transform="translate(27.971 10.827)"/></g><circle class="g" cx="8.12" cy="8.12" r="8.12" transform="translate(58.648 10.827)"/></g><g transform="translate(1284.077 441.454) rotate(180)"><path class="h" d="M0,0A.068.068,0,0,0,.013.035C.007.026,0-.01,0,0" transform="translate(63.945 15.357) rotate(180)"/><path class="h" d="M.007.012a.078.078,0,0,1,0,.009c0-.009-.016-.036,0-.009" transform="translate(63.944 15.349) rotate(180)"/><path class="h" d="M0,0C.013.036.029.07.043.106.036.088.029.074.022.056.209.525.09.22,0,0" transform="translate(63.999 15.49) rotate(180)"/><path class="h" d="M0,0,.022.051C.074.152,0,0,0,0" transform="translate(63.959 15.381) rotate(180)"/><path class="h" d="M0,0Z" transform="translate(63.939 15.34) rotate(180)"/><path class="h" d="M0,0H0" transform="translate(63.94 15.341) rotate(180)"/><path class="h" d="M.02.032c.011.022-.051-.083,0,0" transform="translate(63.949 15.355) rotate(180)"/><path class="h" d="M0,0H0" transform="translate(63.94 15.341) rotate(180)"/><rect class="b" width="128" height="84" rx="4" transform="translate(128 84.814) rotate(180)"/><g transform="translate(10.407 0)"><path class="i" d="M37.043,0,74.086,60.453H0Z" transform="translate(74.086 60.453) rotate(180)"/><path class="h" d="M32.748,0,65.5,44.26H0Z" transform="translate(107.984 44.26) rotate(180)"/></g><circle class="g" cx="12.181" cy="12.181" r="12.181" transform="translate(111.759 68.573) rotate(180)"/></g></g></svg>