<svg xmlns="http://www.w3.org/2000/svg" width="264.393" height="259.641" viewBox="0 0 264.393 259.641"><defs><style>.a{fill:#f2f2f2;}</style></defs><path class="a" d="M85.908,140.452c.257-11.228-4.343-21.577-9.435-31.344C66.56,90.095,61.6,78.719,63.2,56.138c.943-13.28,2.069-27.312-4.709-39.372C53.559,7.984,43.2-1.411,32.274.177,14.969,4.119,5.308,20.608,1.6,36.98c-4.59,20.293.666,35.433,15.99,48.435,8.635,7.325,13.505,14.87,15.86,26.025,1.884,8.92,1.349,19.15,4.572,27.729,4.819,12.824,13.518,20.656,26.6,23.038-4.722-25.419-11.356-51.684-21.993-75.25-.955-2.332-7.816-12.3-4.961-14.818,3.151-2.773,8.341,13.161,8.3,13.061,3.015,7.082,5.559,14.394,8,21.736h-.041q3.787,11.308,7.333,22.821c.912,3.216,1.767,6.451,2.525,9.729,1.114,4.81,1.245,17.477,4.4,21.239a6.809,6.809,0,0,0,2.056,1.715c1.265,5.3,2.445,10.62,3.48,15.946,2.7,13.912,4.264,28.182,2.513,42.328-.511,4.129-5.765,18.488-4.024,22.154,3.182,6.705,4.971-3.635,5.65-6.711,5.614-25.473,3.585-49.389-2.541-74.328C80.962,157.958,85.8,145,85.908,140.452" transform="matrix(0.951, -0.309, 0.309, 0.951, 106.943, 26.55)"/><path class="a" d="M12.74.12c8.218,1.2,15.976,11.589,19.8,18.515C37.28,27.2,40.584,36.982,43.072,46.4c4.1,15.507,4.654,32.718,4.7,48.6.006,1.914.4,25.291-2.328,24.908-2.708-.38-.993-24.645-1.224-29.67-.492-10.723.243-21.3-2.272-31.886a101.07,101.07,0,0,0-13.4-30.768c-.774-1.215-2.413-5.733-4.275-4.69-1.821,1.021,3.223,7.039,3.939,8.209a103.66,103.66,0,0,1,7.652,15.2,80.1,80.1,0,0,1,5.984,30.76c-6.254.96-11.7-2.7-13.8-8.8-1.813-5.275-1.99-11.41-4.049-16.4a24.328,24.328,0,0,0-6.433-8.818C10.283,36.539,2.686,34.912.516,24.115-1.184,15.651.927-1.6,12.74.12" transform="matrix(0.53, -0.848, 0.848, 0.53, 50.593, 156.867)"/><path class="a" d="M15.533,59.461A7.452,7.452,0,0,0,20.587,57.7a10.016,10.016,0,0,0,2.722-4.329c1.239-3.532,1.357-7.875,1.435-10.749A43.051,43.051,0,0,1,26.3,31.035a20.343,20.343,0,0,1,6.346-9.609c.817-.7,1.689-1.364,2.532-2.008.748-.571,1.521-1.161,2.253-1.772l.332-.277.021-.018c2.357-1.96,4.8-3.987,5.094-7.193a4.969,4.969,0,0,0-.852-3.881,3.745,3.745,0,0,0-2.931-1.038,12.142,12.142,0,0,0-2.482.3c-.131.028-.482.16-.969.342a19.117,19.117,0,0,1-4.933,1.387c-.381,0-.631-.085-.743-.254A.726.726,0,0,1,30,6.333c.286-.678,1.265-1.276,2.91-1.778,3.31-.357,6.435-.677,8.3-.677a6.222,6.222,0,0,1,1.206.085,18.306,18.306,0,0,1,8.884,4.9,31.208,31.208,0,0,1,6.13,8.746A66.253,66.253,0,0,1,63.114,38.05c.146,1.233.279,2.578.4,4.113h2.542a83.553,83.553,0,0,0-.955-9.639c-.723-4.232-2.559-12.39-6.735-19.49a29,29,0,0,0-6.581-7.923,18.394,18.394,0,0,0-9.134-4.054A13.7,13.7,0,0,0,41.18,1c-.961,0-2.116.037-3.253.1a8.526,8.526,0,0,0-3.6-1.053C33.824.019,33.306,0,32.79,0A26.412,26.412,0,0,0,24.1,1.575a37.592,37.592,0,0,0-8.3,4.177,43.218,43.218,0,0,0-7.175,5.956A36.045,36.045,0,0,0,3.311,18.62,26.448,26.448,0,0,0,0,31.92,42.648,42.648,0,0,0,2.319,45.594a31.183,31.183,0,0,0,4.647,9.035c2.494,3.171,5.336,4.8,8.446,4.831Z" transform="translate(0.004 44.035)"/></svg>